<svg width="216" height="216" viewBox="0 0 216 216" fill="none" xmlns="http://www.w3.org/2000/svg">
<path fill-rule="evenodd" clip-rule="evenodd" d="M84.2745 108.182C85.1734 108.77 85.8613 109.63 86.238 110.636C86.369 110.963 86.4751 111.3 86.5555 111.644C86.8498 112.9 86.8251 114.209 86.4835 115.453C86.3057 116.342 85.8528 117.153 85.189 117.771C84.5252 118.389 83.684 118.783 82.7841 118.897C83.3637 122.516 83.9088 124.916 84.0261 125.49C84.5906 127.915 84.5474 127.311 84.4711 127.901L84.1723 128.143L83.7929 128.097L83.5473 127.794C83.5473 127.717 82.782 125.519 82.0713 122.386C81.0633 117.949 81.1721 118.233 81.2894 117.94C81.3621 117.799 81.4775 117.684 81.6192 117.613V117.613C81.9288 117.497 82.3104 117.518 83.0196 117.295C83.5195 117.164 83.9582 116.863 84.2609 116.443C84.7383 115.686 85.0313 114.826 85.1162 113.935C85.2011 113.043 85.0756 112.144 84.7497 111.31C84.4758 110.482 83.8858 109.795 83.1081 109.4C82.2297 108.912 82.9836 108.45 82.3629 105.106C80.1482 93.7253 67.5122 93.415 62.3836 100.23L62.0561 100.432L61.6961 100.364H61.6896L61.4944 100.053C61.5722 99.607 61.5463 99.6926 61.6039 99.6033V99.5997C67.8369 90.0158 84.1572 92.8562 84.2745 108.182Z" fill="black"/>
<path fill-rule="evenodd" clip-rule="evenodd" d="M67.968 104.725C68.5785 104.709 69.1705 104.936 69.6154 105.354C69.873 105.562 70.0582 105.846 70.1446 106.166C70.1446 106.171 70.0769 106.493 70.0769 106.498C68.9731 106.608 69.6074 106.575 68.9702 106.466C68.858 106.444 68.7445 106.428 68.6304 106.419L68.6138 106.415C68.2289 106.329 67.8296 106.332 67.446 106.423L67.4258 106.433C67.2044 106.51 67.0044 106.639 66.8419 106.808C66.7519 106.932 66.6655 106.952 66.2508 107.214C66.173 107.276 66.2789 107.214 65.5704 107.523C65.2579 106.803 65.2939 106.901 65.286 106.824C65.2584 106.489 65.3367 106.155 65.5099 105.868C65.8698 105.417 66.352 105.079 66.8988 104.894V104.894C67.2433 104.778 67.6047 104.721 67.968 104.725Z" fill="black"/>
<path d="M69.4644 110.838C69.5043 109.924 68.8825 109.155 68.0756 109.12C67.2688 109.084 66.5824 109.797 66.5425 110.711C66.5027 111.625 67.1245 112.395 67.9313 112.43C68.7382 112.465 69.4246 111.753 69.4644 110.838Z" fill="black"/>
<path fill-rule="evenodd" clip-rule="evenodd" d="M68.0148 123.443L67.6152 123.339C67.5209 123.277 67.2228 123.134 67.1184 123.085C67.0565 123.056 66.4704 122.778 66.4034 122.748C66.231 122.668 66.0628 122.579 65.8994 122.481V122.481C65.5827 122.302 65.2407 122.17 64.8849 122.093V122.093C64.8031 122.078 64.7203 122.071 64.6372 122.072H64.6272H64.6005H64.5904H64.584H64.5739H64.5552H64.548H64.5415H64.535H64.5285H64.5213H64.5141H64.5076H64.504H64.5004H64.4968H64.4932V122.075L64.4824 122.085L64.4788 122.091V122.098H64.4753C64.466 122.113 64.4575 122.13 64.45 122.147V122.147L64.4428 122.152L64.4284 122.172L64.422 122.178L64.4148 122.191L64.4076 122.198L64.3867 122.217L64.3795 122.23L64.3478 122.268C64.2958 122.328 64.2498 122.393 64.2103 122.461C64.1422 122.559 64.0822 122.661 64.031 122.769V122.778L63.522 123.267C62.9748 122.697 63.036 122.849 62.9078 122.288C62.8924 122.149 62.8863 122.009 62.8898 121.869C62.8995 121.723 62.9325 121.579 62.9877 121.442C63.1389 121.116 63.3799 120.84 63.6825 120.647C64.0467 120.43 64.47 120.334 64.8921 120.371C65.7766 120.478 66.6175 120.816 67.3308 121.35V121.35C67.7374 121.691 68.0931 122.088 68.387 122.53L68.5123 122.921L68.4086 123.248L68.0148 123.443Z" fill="black"/>
<path fill-rule="evenodd" clip-rule="evenodd" d="M62.0877 126.396C62.3037 126.58 62.8862 126.986 62.9654 127.035C64.1202 127.924 65.5159 128.445 66.9708 128.529C67.6978 128.57 68.4269 128.504 69.1351 128.335C69.6924 128.209 70.2489 127.896 70.6521 128.69C71.2835 130.11 71.8128 131.573 72.2361 133.068C72.4946 133.86 72.4521 133.565 72.4464 134.095L72.2059 134.374H72.1987L71.8308 134.377C71.4708 134.065 71.6097 134.32 70.7961 132.76C70.758 132.697 69.8659 130.877 69.4433 129.931C68.8322 130.076 68.2072 130.155 67.5792 130.165C65.7913 130.201 64.0345 129.695 62.5392 128.714C61.9105 128.31 61.3751 127.777 60.9689 127.15V127.143C60.7662 126.837 60.5851 126.516 60.4267 126.184V126.184L60.3806 125.79L60.5592 125.497H60.5664L60.9069 125.442C61.5189 125.775 60.8961 125.382 62.0877 126.396Z" fill="black"/>
<path fill-rule="evenodd" clip-rule="evenodd" d="M64.304 128.751C63.0267 128.291 61.3332 127.796 60.979 126.49C60.7121 125.55 60.4934 124.597 60.3238 123.635C60.1194 122.379 60.0759 121.102 60.1942 119.835C60.2136 119.696 60.156 119.342 60.2755 119.42C61.5168 120.255 60.8436 122.355 64.1391 128.645" fill="black"/>
<path fill-rule="evenodd" clip-rule="evenodd" d="M63.1217 127.181C63.8324 127.513 64.6141 127.666 65.3976 127.624C64.9829 126.612 63.8295 123.758 64.9123 123.918C65.2587 123.973 65.5186 124.329 65.6993 124.596C66.1731 125.297 66.3473 126.353 67.0147 126.912C67.6095 127.416 69.1265 126.719 69.7205 126.48C70.1122 126.322 71.0885 126.12 71.2239 125.621C71.3679 125.073 70.9013 124.352 70.6997 123.872C70.2612 122.831 69.7961 121.784 69.3029 120.763C69.0601 120.125 68.693 119.542 68.2229 119.048C67.1897 118.131 66.4582 118.674 65.7835 118.225C65.3616 117.937 65.1607 117.444 65.7619 117.202C66.3046 117.051 66.879 117.058 67.4179 117.221C67.951 117.303 68.4655 117.478 68.9379 117.739C70.3246 118.59 71.0259 120.259 72.3679 122.373C73.3695 123.988 73.3335 125.351 75.7311 122.699C79.2418 118.843 77.8759 117.293 78.9876 113.509C79.0596 113.273 79.231 112.564 79.6018 112.65C80.1828 112.794 80.3578 113.661 80.419 114.149C80.656 115.72 80.6256 117.321 80.329 118.882C80.0606 120.315 79.4756 121.67 78.6168 122.848C77.6088 124.104 75.1385 126.617 72.4831 127.715C71.8992 127.956 69.8523 128.871 69.3727 128.993C65.7007 129.938 62.5983 128.438 62.113 127.356C62.0223 127.14 62.118 126.932 62.3729 126.946C62.6433 126.988 62.9059 127.07 63.1519 127.189" fill="black"/>
<path fill-rule="evenodd" clip-rule="evenodd" d="M41.9933 104.363C42.3072 104.701 42.2093 104.425 42.768 106.141C47.2277 121.245 39.7051 131.996 41.1192 154.561C41.6448 161.515 42.9026 167.41 46.53 173.281C49.3129 177.615 53.1712 181.155 57.7289 183.555C58.1069 183.571 68.1811 190.387 83.2068 185.283L83.5942 185.303L83.857 185.583C83.857 185.593 83.8375 185.96 83.8368 185.97L83.5567 186.237C80.5705 187.359 77.4461 188.072 74.2687 188.356C67.996 188.93 61.6965 187.592 56.199 184.517C50.7016 181.442 46.2637 176.775 43.4693 171.13C38.5128 161.15 38.7684 146.637 40.2444 135.601C41.1552 127.83 43.9258 116.624 42.1762 108.325C41.9601 107.192 41.6729 106.074 41.3165 104.977V104.977L41.3467 104.597L41.6261 104.343L41.9933 104.363Z" fill="#010101"/>
<path fill-rule="evenodd" clip-rule="evenodd" d="M47.021 103.242L47.3285 103.5C48.2494 104.757 48.3919 105.714 48.7973 107.698C49.0423 108.955 49.1722 110.232 49.1854 111.514C49.1556 112.283 49.0678 113.049 48.9226 113.805L48.7318 114.157L48.397 114.296L48.0758 114.129L47.9131 113.76H47.9095C47.8685 113.244 47.6258 111.528 47.5214 110.336C47.25 107.235 46.6574 106.075 46.4926 104.715C46.489 104.687 46.4033 103.879 46.3975 103.851C46.3975 103.846 46.4638 103.458 46.4645 103.452L46.6906 103.213H46.6978L47.021 103.242Z" fill="#010101"/>
<path fill-rule="evenodd" clip-rule="evenodd" d="M52.8315 102.672C53.0768 102.842 53.2717 103.075 53.396 103.347C53.6147 103.692 53.7933 104.062 53.928 104.448C54.2656 105.747 54.479 107.075 54.5652 108.414C54.6922 109.64 54.6124 110.879 54.3291 112.079C54.2657 112.421 54.0598 113.008 54.0562 113.087L53.8229 113.415L53.4766 113.516L53.1764 113.314L53.0576 112.927C53.0576 112.032 52.9712 109.061 52.9539 108.673C52.8735 107.361 52.6717 106.06 52.3512 104.785C52.2958 104.466 52.1986 103.323 52.2015 103.269L52.2735 102.871L52.4996 102.635H52.506L52.8315 102.672Z" fill="#010101"/>
<path fill-rule="evenodd" clip-rule="evenodd" d="M58.6173 104.785C58.8758 105.157 58.8787 104.956 59.2574 107.377C59.586 110.458 59.6505 113.562 59.4504 116.654C59.3111 119.146 59.4131 121.646 59.7549 124.118C61.4772 134.054 68.7355 144.94 72.8589 156.545C72.9842 156.78 73.0242 157.052 72.972 157.313L72.6948 157.576L72.3146 157.557C71.9589 157.188 72.1584 157.529 71.5435 156.064C67.2004 146.352 60.269 134.811 58.3387 125.367C56.9908 118.442 58.5352 112.821 57.9585 106.071C57.8419 105.115 57.8361 105.378 57.9499 104.906L58.2609 104.698L58.6173 104.785Z" fill="#010101"/>
<path fill-rule="evenodd" clip-rule="evenodd" d="M77.3547 149.745L77.6376 149.956C77.6376 149.961 77.629 150.305 77.6283 150.311C76.6779 151.535 74.7259 152.133 72.5407 153.407C72.1295 153.664 71.6694 153.834 71.1893 153.905C71.0367 153.947 71.1835 153.959 70.3843 153.793C70.5492 152.993 70.5024 153.135 70.6003 153.007C70.8862 152.578 71.2761 152.229 71.7336 151.992C71.7372 151.908 74.533 150.538 74.9571 150.336C75.3846 150.171 75.8203 150.028 76.2624 149.908C76.6068 149.762 76.9826 149.706 77.3547 149.745Z" fill="#010101"/>
<path fill-rule="evenodd" clip-rule="evenodd" d="M11.6338 118.826H11.6403L11.8865 119.105C11.8649 119.737 11.965 119.17 11.2709 120.897C8.58243 127.387 6.99411 135.225 6.09195 142.306C5.58291 146.808 5.33955 150.752 5.25603 153.618C5.06449 157.049 5.39711 160.489 6.24243 163.819C6.59477 165.107 7.01806 166.375 7.51035 167.616C9.64332 172.669 13.512 176.793 18.4183 179.244C21.475 180.703 24.8232 181.449 28.2103 181.426C32.0512 181.367 35.8457 180.578 39.3912 179.1C40.0666 178.829 42.1366 177.893 42.2208 177.813L42.6067 177.784C42.6125 177.788 42.8998 178.027 42.9041 178.032L42.9343 178.415C42.6003 178.82 42.9459 178.615 40.5454 179.797C37.9847 181.004 35.2811 181.882 32.4994 182.409C30.6578 182.741 28.7881 182.89 26.9172 182.856C26.4773 182.856 26.0424 182.814 25.7551 182.802C24.4296 182.705 23.1148 182.494 21.8254 182.172C20.5299 181.844 19.2658 181.403 18.0475 180.853C15.3032 179.576 12.8334 177.777 10.7755 175.557C8.94773 173.666 7.45673 171.476 6.36699 169.082C3.11043 161.797 3.38403 155.574 3.94995 147.62C4.83915 137.241 6.20787 128.444 10.9728 119.063L11.2608 118.813L11.6338 118.826Z" fill="#010101"/>
<path fill-rule="evenodd" clip-rule="evenodd" d="M27.3435 122.499L27.661 122.673L27.7942 123.033C27.7942 123.141 27.7762 124.383 27.828 125.307C27.828 125.817 27.9 126.945 27.9122 127.174C28.0114 129.97 28.2957 132.756 28.7633 135.515C29.5553 140.79 32.0609 148.05 34.0574 152.949C35.851 157.351 35.6162 156.36 35.6501 157.046C35.645 157.051 35.4103 157.334 35.4053 157.34C35.4002 157.347 35.0273 157.36 35.023 157.36C34.627 157.023 34.807 157.259 34.2058 156.156C33.7874 155.352 32.5663 153.081 31.5734 150.728C29.3208 145.414 27.7483 139.837 26.8935 134.13C25.8394 127.129 26.771 123.618 26.7998 122.953L26.9899 122.616L27.3334 122.499L27.3435 122.499Z" fill="#010101"/>
<path fill-rule="evenodd" clip-rule="evenodd" d="M38.448 149.21L38.7173 149.421C38.7173 149.426 38.6928 149.756 38.6928 149.761L38.4221 150.108C37.9188 150.527 37.3619 150.878 36.7661 151.15C36.6833 151.147 36.1671 151.433 34.4621 152.058C34.3019 152.136 34.1289 152.183 33.9516 152.199C33.8796 152.207 33.6319 152.212 33.5794 152.209C33.1049 152.18 33.3303 152.246 32.562 151.886C32.922 151.114 32.7867 151.325 33.138 150.989C33.3498 150.78 33.6078 150.624 33.8911 150.534C34.0395 150.54 36.5839 149.358 37.4911 149.268C37.8022 149.18 38.1286 149.16 38.448 149.21V149.21Z" fill="#010101"/>
<path d="M159.564 105.129C160.569 105.059 161.32 104.113 161.243 103.018C161.166 101.922 160.289 101.091 159.285 101.162C158.281 101.232 157.529 102.178 157.606 103.273C157.683 104.369 158.56 105.2 159.564 105.129Z" fill="black"/>
<path fill-rule="evenodd" clip-rule="evenodd" d="M160.089 95.7528C160.292 95.8336 160.489 95.9298 160.677 96.0408C160.754 96.0912 160.685 96.0286 161.004 96.377L161.042 96.7205L160.796 96.9552L160.386 97.02C160.235 97.0032 160.083 96.9977 159.931 97.0034C159.583 97.017 159.236 97.0618 158.895 97.1374H158.89C158.526 97.1801 158.17 97.2789 157.836 97.4304C157.386 97.6348 156.976 97.9179 156.626 98.2663V98.2663C156.508 98.4041 156.372 98.5252 156.222 98.6263V98.6263C155.87 98.9402 155.429 99.1368 154.96 99.1886L154.784 98.5046C154.835 98.2213 154.92 97.9454 155.038 97.6831V97.6831C155.146 97.4603 155.3 97.2624 155.488 97.1021V97.1021C155.949 96.6491 156.481 96.2754 157.063 95.9962C157.585 95.7513 158.141 95.5888 158.713 95.5145C159.183 95.4991 159.651 95.5802 160.089 95.7528Z" fill="#010101"/>
<path fill-rule="evenodd" clip-rule="evenodd" d="M159.02 115.016L159.282 115.253L159.354 115.654C159.28 116.225 159.123 116.781 158.887 117.305C158.846 117.383 158.989 117.103 158.692 117.695C157.933 118.87 156.892 119.835 155.663 120.503C155.255 120.744 154.816 120.93 154.359 121.056C153.987 121.121 153.607 121.129 153.233 121.08C152.961 121.042 153.132 121.134 152.477 120.612C153.107 119.814 152.637 120.263 153.86 119.548C154.522 119.303 155.144 118.963 155.709 118.54V118.54C156.342 118.045 156.905 117.465 157.383 116.818V116.818C157.489 116.694 157.815 116.286 158.005 115.996C158.146 115.796 158.272 115.587 158.384 115.369V115.369L158.666 115.077L159.013 115.022L159.02 115.016Z" fill="#010101"/>
<path fill-rule="evenodd" clip-rule="evenodd" d="M73.3745 25.6608L73.6848 25.8458C73.9073 26.5061 73.7453 25.6183 73.7813 28.9706C73.8158 32.454 73.8022 32.2826 73.5998 32.5944C72.9252 33.3108 72.5371 32.4504 70.9236 32.9594C70.3764 33.1307 69.893 33.4616 69.5355 33.9098C69.1378 34.4328 68.9624 35.0915 69.0473 35.743L69.0538 35.761V35.7782C69.0588 35.7941 69.0739 35.8553 69.0883 35.8963C69.2371 36.2643 69.5085 36.5695 69.8566 36.7603C70.9265 37.3846 72.8762 37.0418 73.4926 37.2067C74.1686 37.5091 73.9454 37.8821 74.2327 39.0413C74.4611 40.2642 75.1039 41.371 76.0529 42.1754V42.1754C77.2769 43.146 77.2632 41.7802 77.0702 46.8317C77.0249 48.2414 77.0738 47.9297 76.8794 48.4006L76.5374 48.559H76.536C75.9161 48.2976 76.0464 48.7354 75.7714 43.7198C74.3314 43.0502 73.103 41.6232 72.5717 39.0398C72.5429 38.8958 72.5328 38.8462 72.5198 38.7792C71.3458 38.8832 70.1648 38.6805 69.0927 38.191C68.5081 37.8667 68.0284 37.3821 67.7103 36.7942C67.4745 36.3258 67.3672 35.8033 67.3992 35.28C67.4383 34.6954 67.5933 34.1244 67.855 33.6002C68.1168 33.076 68.4802 32.6091 68.924 32.2266C69.3679 31.8441 69.8834 31.5537 70.4405 31.3722C70.9976 31.1907 71.5852 31.1218 72.1692 31.1695C72.2316 29.9672 72.358 28.7691 72.5479 27.5803C72.8403 25.8394 72.7841 26.1504 73.0217 25.7666L73.368 25.6615L73.3745 25.6608Z" fill="#010101"/>
<path fill-rule="evenodd" clip-rule="evenodd" d="M88.169 26.2037L88.4981 26.3527L88.6615 26.7034C88.6774 27.1865 89.0114 30.0406 89.0503 31.6418C89.9231 31.6317 90.7861 31.826 91.5703 32.2092C92.1036 32.5183 92.5437 32.9654 92.8442 33.5035C93.1448 34.0417 93.2947 34.6509 93.2782 35.267C93.2778 35.489 93.2592 35.7105 93.2227 35.9294C92.8195 38.2378 90.8633 39.0406 88.511 39.0794C88.367 39.0794 88.4311 39.0319 88.3534 39.3401C88.1929 40.1513 87.8736 40.9227 87.4138 41.61C86.954 42.2973 86.3628 42.8869 85.6742 43.3447C85.5612 43.4167 85.6382 43.1575 85.4892 45.3132C85.3394 47.4869 85.4654 46.9397 85.2358 47.4732L84.8937 47.6294H84.8873L84.5417 47.4854C84.3084 46.9814 84.3977 47.3486 84.3134 45.9454C84.2011 42.4174 84.2414 43.3598 84.222 43.0978C84.2022 42.9715 84.216 42.8423 84.262 42.7231C84.308 42.6039 84.3846 42.499 84.4841 42.4188V42.4188C85.0781 42.0563 85.5809 41.5622 85.9536 40.9745C85.9601 40.9622 86.0076 40.883 86.0213 40.8643C86.3222 40.3446 86.554 39.7879 86.711 39.2083C86.9854 38.2846 86.7787 38.0052 87.2453 37.6049C87.6686 37.3464 87.8933 37.5178 89.0568 37.4321C89.7999 37.4333 90.5208 37.1791 91.0987 36.7121C91.3889 36.3929 91.5759 35.9935 91.6354 35.5662C91.6949 35.139 91.624 34.7037 91.4321 34.3174C90.9893 33.4325 89.9921 33.3043 88.9898 33.2676C88.2576 33.2438 87.8062 33.3792 87.4973 32.7348C87.4417 32.5292 87.4217 32.3157 87.4382 32.1034C87.405 30.2982 87.4814 28.4927 87.6672 26.6969L87.835 26.3484L88.1662 26.2044L88.169 26.2037Z" fill="#010101"/>
<path fill-rule="evenodd" clip-rule="evenodd" d="M82.1556 37.6884C82.1059 38.435 82.1556 38.3789 81.9569 38.669C81.7651 38.987 81.4886 39.2452 81.1584 39.415C80.7658 39.5786 80.3404 39.6484 79.9161 39.6189C79.4918 39.5894 79.0802 39.4614 78.714 39.245C78.4382 39.091 78.426 39.0881 78.228 38.741C78.156 38.5862 78.1178 38.453 78.115 38.453L78.043 37.7518C79.5341 37.5998 79.249 37.7604 79.7789 37.9462C80.2764 38.1082 80.4312 37.9044 80.8323 37.836C81.7135 37.6243 81.0519 37.6466 82.1556 37.6884Z" fill="#010101"/>
<path fill-rule="evenodd" clip-rule="evenodd" d="M80.599 30.3876C80.9842 31.3999 80.8474 30.8794 80.7898 33.3166C80.8237 34.0879 80.7431 34.8599 80.5507 35.6076C80.5216 35.8373 80.4382 36.0567 80.3074 36.2477L80.0194 36.4162H80.0129L79.704 36.2722L79.488 35.9122C79.0409 34.4297 79.1237 34.0625 79.2187 31.8917C79.1755 31.48 79.2486 31.0644 79.4297 30.6922C79.6414 30.2508 79.5017 30.4272 80.1231 29.862C80.1288 29.8721 80.5896 30.3754 80.599 30.3876Z" fill="#010101"/>
<path d="M77.6585 30.915C77.6904 30.1836 77.2715 29.5713 76.7229 29.5474C76.1743 29.5235 75.7037 30.097 75.6718 30.8284C75.6399 31.5598 76.0588 32.172 76.6074 32.196C77.1561 32.2199 77.6267 31.6464 77.6585 30.915Z" fill="black"/>
<path d="M84.611 31.2184C84.6429 30.4871 84.224 29.8748 83.6754 29.8509C83.1267 29.8269 82.6561 30.4005 82.6243 31.1318C82.5924 31.8632 83.0113 32.4755 83.5599 32.4994C84.1085 32.5233 84.5791 31.9498 84.611 31.2184Z" fill="black"/>
<path fill-rule="evenodd" clip-rule="evenodd" d="M76.2775 42.7104C76.5389 42.7274 76.799 42.7599 77.0566 42.8076C77.562 43.0379 78.1031 43.1801 78.6564 43.2281C79.1381 43.2742 79.3764 43.2439 79.6608 43.2799C81.0497 43.452 80.6875 43.3843 81.1851 43.5485L81.3953 43.8062C81.3953 43.8142 81.3031 44.1259 81.301 44.1338L80.9763 44.4082C80.4111 44.7261 79.7721 44.8897 79.1237 44.8826C78.3521 44.8683 77.5875 44.733 76.8579 44.4816C76.4393 44.3818 76.0757 44.1237 75.8434 43.7616C75.6375 43.4398 75.7145 43.6795 75.5741 42.8256C76.5231 42.6686 76.1983 42.7054 76.2775 42.7104Z" fill="black"/>
<path fill-rule="evenodd" clip-rule="evenodd" d="M72.9591 32.3741C72.1999 31.3141 71.7455 30.0665 71.6449 28.7665C71.5444 27.4666 71.8017 26.164 72.3888 24.9998C69.9711 24.4483 67.8492 22.14 67.1753 19.7827C71.9993 22.6375 81.0504 14.7809 86.9522 18.049C89.2944 19.345 90.2686 22.2617 89.7955 24.817C93.2126 26.4182 92.1514 29.5286 90.3996 32.8702C89.7137 32.6373 88.9918 32.5285 88.2677 32.549C88.11 30.0816 88.403 27.6084 88.2094 25.1388C86.8994 25.5103 85.5553 25.7486 84.1975 25.8502C81.126 26.2102 77.711 26.3304 74.7022 25.4988C73.5209 27.695 72.9568 30.1702 73.0699 32.6614" fill="black"/>
<path fill-rule="evenodd" clip-rule="evenodd" d="M67.6555 19.121C71.64 21.1788 78.1049 16.0704 84.1817 16.4714C88.4038 16.7436 90.7006 19.8029 90.7243 23.6074C90.7287 24.8659 90.4039 23.945 91.5559 24.997C93.6439 27.1008 92.8872 29.6093 91.6128 32.2877C91.1765 33.1387 91.0426 33.7687 90.2326 33.6658C89.5989 33.4347 88.9256 33.3317 88.2519 33.3626C87.3691 33.2712 87.4498 32.5325 87.4195 31.7628C87.3663 30.4459 87.5052 27.4658 87.4613 26.1648C86.8311 26.2976 86.1945 26.3983 85.554 26.4665C78.2878 27.3305 75.4999 26.3153 75.271 26.3052C75.1198 26.2685 75.0283 26.2447 75.0276 26.2447C74.7421 26.824 74.4925 27.4204 74.2803 28.0303C73.8314 29.2938 73.5884 30.621 73.5603 31.9615C73.5279 32.711 73.6704 32.3654 73.4494 32.994L73.1095 33.169H73.1031L72.7431 33.0458L72.5659 32.7017V32.6642L72.5429 32.6491C71.4492 31.1399 70.9022 29.3031 70.992 27.4414C71.0398 26.7655 71.1816 26.0995 71.4132 25.4628C69.9569 24.9153 68.6906 23.9572 67.7679 22.7045C67.2135 21.9837 66.7815 21.1766 66.4891 20.3155C66.3854 20.0907 66.3489 19.8406 66.384 19.5955C66.4263 19.4142 66.5295 19.2529 66.6764 19.1385C66.8233 19.0241 67.005 18.9636 67.1911 18.967C67.3574 18.9735 67.5184 19.0269 67.6555 19.121V19.121ZM73.0591 24.7615C73.1133 24.9116 73.1133 25.0759 73.0591 25.2259C72.6222 25.9925 72.3518 26.8425 72.2656 27.7206C72.1793 28.5988 72.2792 29.4852 72.5587 30.3221C72.6055 30.4661 72.5667 30.4474 72.6214 30.0924C72.798 28.7897 73.1424 27.5153 73.6459 26.3009C74.1406 25.1575 74.1615 25.0207 74.5438 24.8875C74.6208 24.8875 74.5056 24.8688 74.7598 24.871C76.0018 25.186 77.2742 25.3653 78.5549 25.4059C81.2866 25.4395 84.0151 25.2087 86.7024 24.7169C87.169 24.6204 87.6304 24.5003 88.0848 24.3569C88.259 24.3294 88.4374 24.3609 88.5917 24.4463C88.746 24.5318 88.8674 24.6663 88.9366 24.8285C89.2037 25.6356 88.9992 29.4674 89.0417 31.7714C89.3588 31.7931 89.674 31.8371 89.9849 31.9032C90.0663 31.7534 90.2304 31.4042 90.3089 31.2473C90.6451 30.5935 90.9023 29.902 91.075 29.1874C91.4955 27.3089 90.9677 26.4715 89.9028 25.7918C89.3931 25.4981 89.3895 25.5845 89.1411 25.3051C88.7184 24.6362 89.3232 24.6953 88.9848 22.3531C88.8713 21.6672 88.6217 21.0108 88.2507 20.4228C87.8798 19.8347 87.395 19.3267 86.8248 18.9288C81.9411 15.8407 74.0419 22.0176 68.6614 21.1651C69.425 22.4962 70.6024 23.5415 72.0144 24.1423C72.6063 24.3713 72.8431 24.2806 73.0591 24.7615V24.7615Z" fill="black"/>
<path fill-rule="evenodd" clip-rule="evenodd" d="M103.963 58.932C103.963 58.932 96.9192 65.88 81.8273 67.9068C75.6843 68.7312 69.4138 66.8513 63.9058 64.1326C61.2526 62.8214 58.0572 61.241 56.1586 58.9198C56.7662 57.0715 58.5519 55.3788 60.0171 54.1778C63.576 51.264 68.0566 48.888 72.6941 48.366C73.4334 49.7211 74.634 50.7662 76.0781 51.3115C80.3607 53.2159 84.9262 51.7514 87.6514 48.0514C93.9831 48.7778 101.04 53.7552 103.963 58.932Z" fill="#787878"/>
<path fill-rule="evenodd" clip-rule="evenodd" d="M100.296 62.3592C96.1929 64.9045 91.6926 66.7448 86.9817 67.8038C79.0617 69.6096 72.6271 69.7349 61.3303 63.7409C59.2314 62.7342 57.3331 61.3544 55.728 59.6686C55.6186 59.5775 55.5287 59.4654 55.4637 59.3388C55.3986 59.2123 55.3597 59.0739 55.3492 58.932C55.4807 58.3233 55.7249 57.7445 56.0692 57.2256C56.3707 56.7408 56.7102 56.2808 57.0844 55.8497C58.8464 53.9622 60.8652 52.332 63.0813 51.007C65.9054 49.2277 69.0721 48.062 72.3758 47.5855C72.5362 47.5351 72.7074 47.5303 72.8703 47.5717C73.0333 47.6132 73.1814 47.6993 73.2981 47.8202C73.6784 48.6358 74.282 49.3268 75.0391 49.8132C78.3871 52.0682 83.1074 52.0877 86.6469 48.1205C87.346 47.2853 87.2006 47.2234 88.3562 47.4091C94.1947 48.3746 100.932 52.7501 104.371 58.621C104.444 58.7221 104.478 58.8459 104.468 58.9701C104.458 59.0942 104.403 59.2107 104.315 59.2985L104.309 59.292C103.072 60.4399 101.728 61.467 100.296 62.3592V62.3592ZM87.0364 49.9075C85.9786 50.9918 84.6897 51.8233 83.2658 52.3401C81.8418 52.8568 80.3196 53.0454 78.8126 52.8919C75.7447 52.547 73.1246 50.8039 72.2376 49.2444C68.8589 49.8183 65.649 51.1325 62.838 53.0928C61.1275 54.2083 59.5676 55.5392 58.1968 57.0528C57.7535 57.5678 57.3831 58.1412 57.096 58.757C57.8345 59.5427 58.6654 60.2361 59.5706 60.822C62.2687 62.4832 65.1073 63.9046 68.0536 65.07C73.8388 67.2862 78.1884 67.59 82.0684 67.0522C88.7644 66.1025 96.148 63.8568 101.851 59.9414C102.358 59.597 102.847 59.2264 103.316 58.8312C100.194 53.9561 93.8469 49.6519 87.9876 48.8354C87.6925 49.2117 87.3749 49.5697 87.0364 49.9075Z" fill="#787878"/>
<path fill-rule="evenodd" clip-rule="evenodd" d="M92.6913 10.9649C99.8337 11.5337 113.067 13.2646 119.868 16.6385C123.73 18.4596 126.972 21.3742 129.192 25.0207C129.996 26.4168 130.597 27.9197 130.978 29.4847C132.346 35.3887 130.413 40.9413 126.744 45.8215C124.527 48.5959 122.1 51.1956 119.485 53.5975C115.788 57.0072 111.85 60.1452 107.7 62.987C102.822 66.3365 102.913 65.8433 103.979 65.795C106.113 65.6866 108.248 65.9915 110.266 66.6929C113.157 67.6778 114.118 70.4261 113.002 72.684C110.089 78.5736 96.1164 77.2481 93.6907 72.3283C93.5382 72.0302 93.4279 71.7122 93.3631 71.3837C83.1319 72.2966 70.2036 74.772 53.1749 65.5178C48.7771 63.1008 44.8747 60.5109 42.0005 56.4278C40.9101 54.9188 39.9767 53.3024 39.2148 51.6038C36.5175 45.5956 36.1166 38.807 38.088 32.5231C44.4355 12.551 71.8639 9.26351 92.6913 10.9649ZM100.553 66.6101C100.67 66.101 100.538 66.4207 102.935 64.8727C111.187 59.634 124.755 48.8757 128.435 40.3445C129.436 38.1469 129.961 35.7629 129.977 33.3482C129.945 31.2365 129.489 29.1527 128.635 27.2208C127.782 25.2889 126.549 23.5483 125.009 22.1026C121.785 19.0498 118.655 17.5586 114.41 16.2554C109.537 14.7874 102.585 13.7016 97.9171 13.1292C82.3291 11.2514 60.0732 11.5841 47.813 21.4258C44.123 24.2953 41.3409 28.1701 39.8015 32.5838C38.2622 36.9975 38.0312 41.762 39.1363 46.3039C41.0357 53.9057 45.0057 58.5972 50.832 62.2605C63.288 70.0027 74.093 71.5766 87.5131 70.3634C94.217 69.7385 94.2732 69.5196 94.7369 70.0855C94.8505 70.2446 94.8989 70.4412 94.8722 70.6349L94.8672 70.7508V70.7673C94.7109 74.345 106.739 77.4561 111.264 72.9741C112.892 71.0661 112.254 68.9421 110.467 68.0414C109.074 67.4681 107.608 67.088 106.111 66.9117C104.449 66.7763 102.777 66.8423 101.13 67.1083V67.1169C101.058 67.1265 100.985 67.1205 100.915 67.0994C100.846 67.0783 100.781 67.0425 100.727 66.9945C100.672 66.9465 100.628 66.8874 100.598 66.8211C100.568 66.7548 100.553 66.6828 100.553 66.6101V66.6101Z" fill="black"/>
<path fill-rule="evenodd" clip-rule="evenodd" d="M109.994 132.435C107.099 130.155 103.306 128.876 99.7704 128.071C95.2906 127.05 86.282 127.776 86.1992 127.855C82.7288 131.134 79.5377 134.634 75.379 137.123C73.7165 138.119 69.9941 138.733 70.8999 135.611C69.4175 136.192 68.0846 137.099 66.9996 138.264C68.7996 142.25 70.3376 145.469 72.152 149.436C74.0362 148.668 75.32 148.423 77.2049 147.666C82.9095 151.507 86.7658 158.615 88.8545 165.035C89.6674 163.66 90.4918 162.253 91.4112 160.947C90.3478 157.945 89.028 151.919 93.9024 151.659C93.6504 147.923 94.8132 143.711 99.3557 144.213C99.1901 142.302 99.1944 140.143 100.292 138.473C101.678 136.363 104.63 137.351 106.004 138.851C107.176 136.763 109.994 132.435 109.994 132.435Z" fill="#787878"/>
<path fill-rule="evenodd" clip-rule="evenodd" d="M107.762 136.998C106.36 139.308 106.492 139.457 105.925 139.432C105.622 139.36 105.603 139.258 105.457 139.13C104.925 138.624 104.283 138.25 103.581 138.036C103.097 137.879 102.581 137.847 102.082 137.941L102.065 137.947H102.045C101.758 138.013 101.491 138.146 101.265 138.334L101.254 138.347C100.439 139.299 99.9902 140.511 99.9871 141.764C99.8899 144.001 100.216 144.063 99.954 144.583C99.8785 144.701 99.7701 144.794 99.6421 144.851C99.514 144.908 99.3721 144.926 99.234 144.903C98.4204 144.799 97.5943 144.936 96.858 145.297C96.3987 145.577 95.9995 145.945 95.6832 146.38C95.367 146.815 95.14 147.308 95.0155 147.831C94.8966 148.229 94.8089 148.636 94.7534 149.047C94.4273 151.61 95.017 151.811 94.302 152.328C93.5914 152.656 90.5889 152.053 91.3449 157.394C91.5262 158.509 91.8069 159.606 92.1838 160.672C92.3652 161.396 92.0664 161.146 89.8654 164.929C89.5493 165.463 89.4585 165.77 88.9034 165.843C88.7249 165.852 88.5483 165.802 88.401 165.701C88.2536 165.6 88.1438 165.453 88.0884 165.283C87.0361 162.012 85.5931 158.879 83.7907 155.953C82.0704 153.077 79.7976 150.57 77.1033 148.576C76.4841 148.771 77.845 148.366 74.6316 149.414C73.2636 149.846 72.5652 150.154 72.3276 150.226C72.1469 150.265 71.9582 150.242 71.7928 150.159C71.6273 150.076 71.4952 149.94 71.4182 149.772C67.8852 142.015 66.1968 138.751 66.1939 138.185C66.2094 137.998 66.2914 137.823 66.425 137.691C67.2674 136.775 68.2651 136.014 69.372 135.444C69.8371 135.19 70.3226 134.975 70.8235 134.801C71.0001 134.784 71.1776 134.824 71.3292 134.916C71.4808 135.008 71.5983 135.148 71.6637 135.312C71.7761 135.695 71.6954 135.715 71.6098 136.162C71.5739 136.305 71.5654 136.453 71.5845 136.599V136.613V136.626C71.5871 136.642 71.5907 136.657 71.5954 136.673V136.686C71.6034 136.716 71.613 136.745 71.6241 136.773V136.78L71.6306 136.787L71.6364 136.801V136.807C71.6432 136.816 71.6494 136.825 71.6551 136.835V136.841V136.848V136.855L71.6745 136.876H71.681V136.883H71.6875V136.889L71.694 136.893H71.7005L71.7098 136.903H71.7163L71.7228 136.91L71.7422 136.921L71.7487 136.927C71.7638 136.936 71.7559 136.927 71.771 136.939L71.7775 136.945L71.8135 136.961L71.8229 136.968L71.8618 136.982L71.8718 136.989C71.9021 137.002 71.9878 137.027 72.0158 137.036H72.0324C72.0626 137.045 72.0446 137.036 72.0749 137.048H72.0914L72.121 137.056H72.1375L72.1541 137.06C74.0808 137.143 75.1968 136.293 76.7621 135.194C81.0007 132.069 85.0118 127.634 85.7722 127.107C86.5066 126.79 95.1552 126.354 99.4428 127.262C103.08 128.067 107.41 129.627 110.272 132.01L110.28 132.003C110.792 132.48 110.532 132.436 107.762 136.998ZM105.875 137.921C106.163 137.387 109.174 132.706 109.31 132.551C106.677 130.625 102.812 129.396 99.6163 128.742C97.3584 128.186 92.4106 128.298 90.0914 128.386C89.4391 128.421 87.2172 128.539 86.5721 128.618C81.8446 133.171 80.689 134.443 77.1696 136.942C76.097 137.785 74.8444 138.37 73.5091 138.65C72.5623 138.818 71.3268 138.786 70.6291 138.12C70.2915 137.816 70.0663 137.406 69.9898 136.958C69.2512 137.354 68.5724 137.852 67.9737 138.439C69.0797 140.914 72.131 147.41 72.5717 148.396C73.2989 148.108 75.6943 147.388 76.4035 147.1C77.3885 146.74 77.2301 146.656 78.4829 147.572C81.0229 149.533 83.1921 151.932 84.888 154.656C86.5734 157.319 87.97 160.155 89.0539 163.115C89.1021 163.037 90.0216 161.519 90.5105 160.823C89.6681 158.198 88.8984 154.482 90.6718 152.327C91.2935 151.598 92.1563 151.116 93.1032 150.97C92.9732 148.938 93.5312 146.922 94.6872 145.247C94.9881 144.872 95.3445 144.545 95.7441 144.278C96.5949 143.724 97.5943 143.443 98.609 143.471C98.4982 141.216 98.9338 138.153 100.879 137.054C102.042 136.391 103.959 136.424 105.875 137.921V137.921Z" fill="#787878"/>
<path fill-rule="evenodd" clip-rule="evenodd" d="M94.4295 203.486C91.6223 201.565 89.4026 198.904 88.0171 195.798C86.6317 192.692 86.1347 189.262 86.5815 185.89C80.4658 189.352 74.0391 191.133 67.0587 189.485C68.1387 194.272 69.2424 199.061 70.2936 203.85C73.0159 203.754 86.4375 203.594 94.6721 203.639" fill="#787878"/>
<path fill-rule="evenodd" clip-rule="evenodd" d="M86.7197 185.087C86.9041 185.12 87.0717 185.214 87.1947 185.356C87.3177 185.497 87.3886 185.676 87.3958 185.863C87.385 186.015 87.3303 186.452 87.3238 186.53C87.1073 188.573 87.261 190.638 87.7774 192.627C88.3849 195.153 89.5156 197.523 91.0966 199.585H91.1031C92.1749 200.927 93.4082 202.132 94.7751 203.172L95.0422 203.283C95.5246 204.421 95.5692 204.104 85.1616 204.312C74.3919 204.625 81.8359 204.338 70.3253 204.657C70.1354 204.664 69.9491 204.605 69.7989 204.488C69.6487 204.372 69.5442 204.206 69.5038 204.021C66.0687 188.574 66.1968 189.701 66.2825 189.251C66.3356 189.075 66.4466 188.922 66.5974 188.816C66.7483 188.711 66.9303 188.66 67.1141 188.67C69.7152 189.288 72.4051 189.44 75.0593 189.12C77.9893 188.731 80.8373 187.871 83.4934 186.574C86.2906 185.263 86.0991 185.045 86.7197 185.087ZM69.6406 190.761C69.5621 190.752 68.2085 190.58 68.1286 190.537C68.6859 192.985 70.4074 200.569 70.9416 203.016C71.5666 202.836 89.5493 203.039 92.9549 203.093C92.8699 203.046 92.2392 202.544 91.8555 202.213C91.2197 201.659 90.6251 201.06 90.0763 200.42C86.9496 196.802 85.3529 192.109 85.6239 187.335C80.6307 189.928 75.2487 191.457 69.6406 190.761Z" fill="#787878"/>
<path fill-rule="evenodd" clip-rule="evenodd" d="M146.775 127.453C147.135 127.715 147.519 127.94 147.923 128.126L148.378 128.359C149.133 128.805 149.962 129.112 150.826 129.265C151.649 129.418 152.489 129.462 153.324 129.394C154.311 129.313 155.289 129.138 156.243 128.871C156.584 128.771 156.913 128.636 157.226 128.469L157.617 128.397L157.934 128.573H157.938L158.01 128.933L157.822 129.284C157.494 129.57 157.14 129.825 156.763 130.044C155.837 130.562 154.813 130.882 153.757 130.984C152.234 131.148 150.694 130.991 149.236 130.525C148.644 130.328 148.075 130.067 147.541 129.745L147.28 129.558C146.792 129.15 146.375 128.663 146.046 128.118V128.118L145.95 127.732L146.076 127.416L146.399 127.321L146.775 127.453Z" fill="black"/>
<path fill-rule="evenodd" clip-rule="evenodd" d="M148.752 128.856C148.996 129.321 148.901 128.966 149.098 130.195C149.293 131.575 149.338 132.973 149.232 134.364C149.249 134.557 149.208 134.752 149.114 134.922C148.754 135.439 148.427 135.304 147.53 135.344C144.947 135.478 142.374 135.77 139.826 136.22C138.608 136.441 139.106 136.446 138.48 136.364L138.229 136.094C138.229 136.084 138.267 135.734 138.269 135.721L138.557 135.451C140.633 134.53 142.858 133.991 145.125 133.86C147.827 133.644 147.61 133.777 147.614 133.669C147.614 133.525 147.624 132.911 147.625 132.517C147.603 131.742 147.654 130.965 147.779 130.199C147.784 130.164 147.93 129.24 147.932 129.211L148.113 128.86L148.425 128.712L148.752 128.856Z" fill="black"/>
<path fill-rule="evenodd" clip-rule="evenodd" d="M173.124 99.6012C173.43 99.7623 173.727 99.9401 174.013 100.134C177.672 102.807 177.442 107.267 173.75 109.842C172.661 110.6 171.44 111.145 170.15 111.45C170.18 114.371 169.734 117.277 168.828 120.054C168.115 122.298 167.013 124.399 165.573 126.262C165.58 126.353 165.627 130.074 165.835 133.322C168.517 134.07 171.148 134.991 173.71 136.08C174.552 136.477 174.338 136.331 174.675 136.703L174.665 137.084L174.382 137.344C174.304 137.344 173.913 137.336 173.991 137.336C171.129 136.247 168.193 135.361 165.207 134.685C165.064 134.679 164.924 134.643 164.796 134.577V134.577C164.405 134.326 164.408 134.058 164.364 133.583C164.196 132.003 164.028 129.757 163.956 126.692C163.968 125.421 163.948 125.77 164.588 124.892L164.86 124.512C165.562 123.493 166.16 122.406 166.643 121.267C168.02 117.958 168.659 114.389 168.515 110.809C168.509 110.63 168.562 110.455 168.665 110.31C168.769 110.164 168.917 110.057 169.088 110.004C169.68 109.916 170.262 109.769 170.825 109.566C173.16 108.602 175.134 107.056 175.001 104.543C175.001 104.52 174.991 104.432 174.99 104.427C174.914 103.699 174.656 103.002 174.239 102.401V102.401C173.783 101.73 173.186 101.168 172.489 100.755C171.605 100.199 170.586 99.8934 169.542 99.8705L169.187 99.7265L169.029 99.3917L169.164 99.0461C169.566 98.8517 169.452 98.874 169.792 98.8646C170.946 98.8346 172.09 99.0874 173.124 99.6012Z" fill="black"/>
<path fill-rule="evenodd" clip-rule="evenodd" d="M140.616 86.814C142.708 87.9098 144.714 89.1576 147.041 89.7106C152.232 90.9418 158.257 88.8718 162.133 85.333C162.698 91.116 163.846 97.6378 170.094 99.2074C170.506 95.616 170.078 91.345 168.48 88.0553C166.653 84.3055 162.701 81.5357 158.684 80.6083C155.259 79.7895 151.671 79.9643 148.342 81.1123C146.974 81.63 145.761 82.5466 144.341 82.9397C143.75 83.1031 142.906 82.8331 142.998 82.0714C143.118 81.2346 143.539 80.4705 144.184 79.9236C146.186 78.4243 148.499 77.3912 150.952 76.8996C154.563 76.2322 160.221 76.9536 163.475 78.7716C166.738 80.7665 169.372 83.6424 171.072 87.0682C172.562 87.1402 173.443 87.3958 174.702 86.3518C176.21 85.1011 175.444 82.4638 170.143 81.8158C171.135 81.5098 172.081 81.072 172.956 80.514C173.872 80.0597 174.641 79.3577 175.177 78.4879C176.126 76.5864 174.797 74.754 172.782 74.5394C170.665 74.3141 168.322 75.8844 166.892 77.328C167.935 75.6936 169.254 74.1989 169.84 72.3146C170.595 69.9012 169.556 68.2697 167.154 69.4793C165.241 70.4419 164.02 72.5976 162.86 74.3083C163.569 73.0436 164.106 71.6904 164.459 70.2842C164.901 68.1286 164.516 63.6415 161.114 64.6819C158.23 65.5646 156.643 68.8802 155.724 71.7379C155.961 69.5614 156.862 64.3982 155.831 62.28C155.701 61.9703 155.498 61.6967 155.24 61.4828C154.981 61.2689 154.674 61.121 154.345 61.052C154.017 60.9829 153.676 60.9947 153.353 61.0863C153.03 61.178 152.734 61.3467 152.491 61.578C152.138 61.8929 151.829 62.254 151.572 62.6515C149.808 65.3155 149.791 68.6628 149.556 71.7343C149.052 69.5743 148.38 67.1263 146.704 65.5423C144.14 63.1246 142.008 66.4359 141.841 68.8954C141.679 71.3139 142.616 73.4998 143.381 75.7318C142.003 73.7158 140.998 70.7386 138.876 69.3324C136.655 67.8593 134.884 70.0625 134.902 72.311C134.924 74.9354 136.902 77.5814 138.321 79.7047C136.639 78.1351 134.463 75.9168 131.948 76.0018C130.201 76.0608 128.374 79.8898 131.779 83.6035C134.113 86.1545 137.285 86.1955 140.432 86.4756" fill="black"/>
<path fill-rule="evenodd" clip-rule="evenodd" d="M170.401 69.1409C171.396 70.6313 170.732 72.6919 169.883 74.2644C169.905 74.2558 169.98 74.2234 170.007 74.2118C175.664 72.0036 178.376 77.7902 174.434 80.5111C174.094 80.7689 173.182 81.3427 172.802 81.558C173.289 81.717 173.76 81.9216 174.208 82.1693C176.368 83.3486 177.102 85.7786 174.747 87.3302C173.607 88.0618 172.743 87.9912 171.424 87.9062C170.92 87.8738 170.92 87.894 170.673 87.7788C170.173 87.449 170.577 87.5347 169.219 85.4402C167.793 83.2968 165.977 81.4406 163.865 79.9682C160.015 77.4821 153.53 76.9543 150.09 77.9342C148.356 78.409 146.71 79.1629 145.217 80.1662C144.808 80.4082 144.458 80.7383 144.193 81.1325C143.997 81.4386 143.866 81.7817 143.807 82.1405V82.1405C143.884 82.168 143.967 82.1771 144.048 82.1671C145.041 81.8291 145.998 81.3928 146.904 80.8646C153.553 77.5361 164.731 79.1993 169.113 87.5088C169.862 89.0176 170.385 90.6281 170.666 92.2889C171.055 94.4552 171.143 96.6649 170.927 98.8553C170.869 99.3427 170.894 99.3982 170.736 99.6696C170.634 99.8098 170.49 99.9135 170.324 99.9653C170.159 100.017 169.981 100.014 169.818 99.9576C169.24 99.8077 168.678 99.6068 168.136 99.3571C163.939 97.3354 162.608 93.3451 161.831 88.7386C161.767 88.3066 161.611 87.215 161.568 86.7002C158.366 89.1709 154.459 90.5568 150.416 90.6566C145.364 90.6883 142.438 88.1971 140.377 87.2532C139.97 86.7564 140.579 87.0898 137.652 86.7492C134.401 86.3806 132.065 85.3762 130.3 82.5854C130.081 82.2273 129.891 81.8525 129.732 81.4644C129.403 80.6775 129.25 79.8283 129.283 78.9761C129.355 77.3374 130.298 75.4481 131.99 75.4056C133.257 75.4226 134.489 75.8219 135.526 76.5511V76.5511C134.633 74.8483 133.937 73.0721 134.343 71.1806C134.935 68.9976 136.236 68.1646 137.477 68.1689C139.002 68.1847 140.195 69.4116 141.139 70.6068C141.105 70.4887 141.073 69.7219 141.067 69.6442C141.016 65.5236 144.086 62.3585 146.985 64.764C147.883 65.5686 148.599 66.5544 149.088 67.6562C149.269 65.5919 149.967 63.6064 151.118 61.8833C152.102 60.485 153.587 59.7751 155.133 60.4735C157.337 61.5895 157.172 64.458 157.064 66.9269C157.288 66.6012 157.529 66.2887 157.789 65.9909C160.406 63.167 163.878 62.7358 165.01 66.073C165.382 67.2546 165.502 68.5012 165.362 69.732C165.984 69.1642 166.715 68.7295 167.511 68.4547C168.941 68.009 169.91 68.413 170.401 69.1409ZM154.186 75.8462C157.38 75.8952 161.291 76.5821 164.017 78.1502C166.37 79.6125 168.415 81.5202 170.036 83.7662C170.624 84.5624 171.146 85.4052 171.598 86.2862C172.098 86.3453 172.603 86.3453 173.104 86.2862C173.632 86.1595 174.104 85.861 174.444 85.4374L174.455 85.4251L174.469 85.4006L174.473 85.3884L174.494 85.3524L174.498 85.3409L174.506 85.3294V85.3178L174.513 85.3056C174.528 85.2581 174.537 85.2336 174.547 85.2019V85.1904L174.555 85.1681V85.1558L174.559 85.145V85.1213L174.563 85.1098L174.568 84.991V84.9787V84.9535V84.9413V84.929V84.9161V84.9031C174.56 84.8592 174.554 84.8311 174.544 84.7843L174.538 84.7706V84.757V84.7433L174.532 84.7289V84.7152L174.509 84.6583C174.489 84.5518 174.239 83.9174 172.894 83.3249C172.027 82.9775 171.116 82.7472 170.188 82.6402C170.026 82.6416 169.868 82.5969 169.731 82.5111C169.594 82.4254 169.485 82.3023 169.416 82.1563C169.338 81.9876 169.32 81.7971 169.366 81.6169C169.412 81.4368 169.519 81.2779 169.668 81.167C169.921 81.0079 170.29 80.951 171.099 80.5968C171.923 80.2368 173.855 79.1446 174.314 78.377C174.5 78.1318 174.621 77.844 174.668 77.5398C174.714 77.2356 174.683 76.9247 174.578 76.6354C174.473 76.3461 174.298 76.0876 174.068 75.8835C173.837 75.6794 173.56 75.5361 173.26 75.4668C172.133 75.2133 170.951 75.4148 169.972 76.0277C169.053 76.5273 168.213 77.1592 167.478 77.9033C167.345 78.0368 167.17 78.1201 166.983 78.1387C166.795 78.1563 166.606 78.109 166.449 78.0048C166.292 77.8998 166.177 77.7434 166.123 77.5626C166.069 77.3817 166.08 77.1878 166.154 77.0141C166.776 75.8275 169.754 72.5364 169.219 70.3901L169.2 70.375C169.198 70.3621 169.195 70.3494 169.191 70.3368L169.186 70.3246V70.3123L169.179 70.3001V70.2878L169.173 70.2756V70.2641C169.07 70.0661 169.057 70.0481 169.053 70.0423L169.047 70.0358V70.0294L169.04 70.0243V70.0186L169.034 70.0135V70.0085L169.027 70.0034L169.024 69.9991L169.017 69.9948V69.9905L169.011 69.9869V69.9826H169.004H168.998V69.979H168.991V69.9754L168.978 69.9689L168.952 69.9574C168.856 69.9211 168.752 69.905 168.649 69.9098C167.79 70.0336 166.996 70.4354 166.387 71.0539C163.691 73.7482 163.882 75.4524 162.608 75.0902C162.437 75.0256 162.293 74.9052 162.198 74.7485C162.104 74.5917 162.065 74.4077 162.089 74.2262C162.207 73.6906 163.575 71.5795 163.783 69.6125C163.911 68.3885 163.814 66.3926 162.856 65.6064C162.064 64.98 160.64 65.6993 159.869 66.3127C158.419 67.3826 157.385 69.5765 156.784 71.2807C156.471 72.1512 156.517 72.2794 156.073 72.5155C155.898 72.5874 155.703 72.5965 155.521 72.5414C154.258 72.0295 155.555 70.6608 155.531 64.8446C155.527 63.8453 155.36 62.3837 154.451 61.9538C154.241 61.8565 154.007 61.8254 153.778 61.8646C153.215 62.0271 152.736 62.3991 152.439 62.9042C150.734 65.4286 150.639 68.125 150.414 71.3837C150.38 71.9028 150.395 72.095 150.079 72.3874C149.938 72.4969 149.764 72.5559 149.586 72.555C149.407 72.5541 149.234 72.4933 149.094 72.3823C148.59 71.9021 148.9 71.4586 147.87 68.7449C147.827 68.6534 147.687 68.287 147.559 68.0508C147.104 67.0846 146.019 65.5222 144.943 65.4977C144.651 65.5336 144.372 65.6368 144.127 65.7993C143.882 65.9617 143.679 66.1789 143.532 66.4337C141.656 69.1805 143.021 72.2657 144.063 75.415C144.137 75.5619 144.159 75.729 144.128 75.8901C144.096 76.0513 144.012 76.1974 143.888 76.3056C143.763 76.4145 143.605 76.4775 143.44 76.4843C143.274 76.4911 143.111 76.4413 142.978 76.343C142.026 75.5078 140.272 70.3786 137.955 69.6521C137.743 69.5743 137.514 69.5513 137.291 69.5853C137.067 69.6193 136.856 69.7091 136.676 69.8465C133.292 72.9202 138.856 78.7745 138.984 79.681C138.993 79.7904 138.974 79.9004 138.928 80C138.881 80.0996 138.81 80.1855 138.721 80.2493C138.631 80.3131 138.527 80.3526 138.418 80.3639C138.308 80.3752 138.198 80.358 138.097 80.3138C137.436 79.9603 134.876 76.6418 132.098 76.6246C131.9 76.6101 131.702 76.6606 131.535 76.7686C129.711 78.1661 130.338 81.7834 132.736 83.7677C134.694 85.5828 137.614 85.7369 140.21 85.9658C140.583 85.9997 140.44 85.9579 140.851 86.1739L140.93 86.4173C143.648 87.8702 145.919 89.1605 148.68 89.4269C151.482 89.6645 154.299 89.1711 156.853 87.9948C158.626 87.2099 160.261 86.1443 161.695 84.839C161.812 84.7321 161.963 84.6687 162.121 84.6594C162.28 84.6501 162.437 84.6955 162.566 84.7879C163.07 85.2134 162.685 85.2847 163.348 88.9322C163.624 90.6055 164.113 92.2365 164.804 93.785C165.916 95.958 167.088 97.29 169.417 98.1828C169.591 95.6248 169.319 93.056 168.613 90.5911C168.256 89.3484 167.711 88.1675 166.997 87.089C164.196 83.0772 159.214 80.5298 152.896 80.9906C148.517 81.3262 147.361 82.7251 145.175 83.551C144.864 83.7061 144.524 83.7941 144.176 83.8092C143.829 83.8244 143.482 83.7663 143.159 83.6388C142.95 83.5449 142.762 83.4109 142.605 83.2442C142.381 82.9958 142.243 82.6808 142.214 82.3471C142.213 81.7102 142.381 81.0844 142.7 80.5334C143.196 79.6693 143.934 78.9687 144.822 78.5174C146.232 77.6424 147.752 76.9587 149.342 76.4842C150.913 76.0188 152.548 75.8035 154.186 75.8462V75.8462Z" fill="black"/>
<path fill-rule="evenodd" clip-rule="evenodd" d="M133.041 134.533C133.264 134.999 133.185 134.685 133.291 135.722C133.526 137.946 133.635 140.182 133.616 142.418C133.791 151.182 133.859 150.506 133.924 156.686C133.852 162.622 133.924 161.996 133.348 162.287H133.344L132.995 162.135C132.783 161.655 132.841 161.928 132.756 160.911C132.233 154.631 132.293 153.783 132.17 150.012C131.915 139.212 131.9 139.413 132.02 137.403C132.079 136.403 132.206 134.961 132.216 134.883L132.381 134.532L132.709 134.384H132.715L133.041 134.533Z" fill="#787878"/>
<path fill-rule="evenodd" clip-rule="evenodd" d="M179.679 132.48L180.004 132.64L180.157 132.992C180.504 136.385 180.382 150.119 180.36 150.871C180.34 154.21 180.072 157.542 179.557 160.841C179.368 162.146 179.4 161.921 179.175 162.307L178.815 162.417H178.808C178.154 162.026 178.428 162.588 178.587 157.139C179.019 141.515 178.437 140.028 179.084 133.638C179.183 132.807 179.114 133.062 179.338 132.618L179.672 132.479L179.679 132.48Z" fill="#787878"/>
<path fill-rule="evenodd" clip-rule="evenodd" d="M156.485 156.982C156.937 157.846 156.75 157.319 156.935 159.519C157.043 160.21 156.985 160.917 156.766 161.582V161.582L156.565 161.981L156.289 162.155H156.282C155.915 161.967 156.038 162.083 155.755 161.631C155.537 161.141 155.401 160.62 155.351 160.087C155.342 159.993 155.169 157.948 155.21 157.679C155.246 157.518 155.302 157.363 155.376 157.216C155.52 156.915 155.385 157.095 155.975 156.486C155.983 156.492 156.475 156.971 156.485 156.982Z" fill="black"/>
<path fill-rule="evenodd" clip-rule="evenodd" d="M93.7145 153.801C95.4749 155.722 93.9578 154.036 96.6873 157.586C100.892 162.436 100.666 161.922 100.466 162.608L100.132 162.752L99.7351 162.635C100.05 162.635 97.9351 162.059 94.5273 157.455C94.0438 156.849 93.6221 156.196 93.2688 155.506C93.0985 155.111 92.9577 154.703 92.8476 154.287C92.8699 153.777 92.7756 153.999 93.0398 153.608H93.0463L93.3754 153.593L93.7145 153.801Z" fill="black"/>
<path fill-rule="evenodd" clip-rule="evenodd" d="M97.29 147.797C97.7079 148.27 98.0928 148.771 98.442 149.297C100.552 153.096 100.956 153.487 101.78 154.846C103.248 157.491 102.996 156.868 103.118 157.469L102.952 157.79L102.597 157.862L102.234 157.674C101.919 157.35 101.143 156.56 100.711 156C99.3416 154.096 98.1018 152.102 96.9998 150.032C96.756 149.457 96.56 148.863 96.4138 148.255C96.4354 147.759 96.3619 147.935 96.6254 147.584L96.9573 147.578L97.29 147.797Z" fill="black"/>
<path fill-rule="evenodd" clip-rule="evenodd" d="M106.637 150.414L106.263 150.245C105.65 149.708 105.079 149.127 104.553 148.505C103.533 147.145 102.676 145.669 102.002 144.108C101.588 143.306 101.39 142.41 101.426 141.509C101.426 141.301 101.401 141.425 101.545 140.963L101.8 140.756H101.807L102.125 140.833C102.441 141.177 102.39 141.107 102.468 141.265C102.518 141.361 103.092 142.397 103.144 142.574C104.268 145.554 104.993 146.108 106.644 148.951C107.127 149.759 107.004 149.445 107.14 149.99L106.989 150.319V150.322L106.637 150.414Z" fill="black"/>
<path fill-rule="evenodd" clip-rule="evenodd" d="M113.524 140.976H113.53L113.777 141.245C113.792 142.998 108.917 152.148 109.491 166.356C109.537 168.546 109.831 171.739 109.933 172.986C110.84 181.685 111.173 181.132 110.982 182.012C110.976 182.012 110.673 182.228 110.668 182.228C110.663 182.228 110.301 182.151 110.296 182.149L110.071 181.828C109.149 178.022 108.484 174.159 108.081 170.263C107.714 165.782 107.778 161.276 108.272 156.807C108.481 154.812 109.064 151.968 109.077 151.889C109.693 148.717 110.715 145.638 112.117 142.726C112.939 141.007 112.832 141.252 113.159 140.967L113.524 140.976Z" fill="black"/>
<path fill-rule="evenodd" clip-rule="evenodd" d="M92.1794 164.748L92.4365 165.015C92.4574 166.259 92.2205 164.646 91.085 170.893C90.1066 176.227 87.485 184.015 89.3621 192.012C89.8933 194.385 90.9375 196.613 92.4214 198.539C93.9539 200.469 95.9767 201.953 98.2786 202.834C100.297 203.613 102.465 203.924 104.621 203.744C106.312 203.549 107.967 203.112 109.534 202.448C114.129 200.583 116.999 196.428 119.377 192.152C121.825 187.66 121.132 188.456 121.707 187.947L122.088 187.961L122.347 188.249C122.325 188.753 122.382 188.512 122.073 189.212C120.516 192.688 118.293 197.262 115.581 200.022C113.898 201.825 111.842 203.24 109.556 204.167C107.271 205.094 104.81 205.512 102.347 205.39C99.2399 205.182 96.2648 204.057 93.7969 202.159C91.329 200.26 89.479 197.673 88.4808 194.724C87.2573 191.083 86.8157 187.225 87.1848 183.402C87.8508 176.602 88.6572 175.228 89.4485 171.877C89.6436 171.131 90.4853 167.075 91.5228 165.011L91.8 164.747H92.1715L92.1794 164.748Z" fill="black"/>
<path fill-rule="evenodd" clip-rule="evenodd" d="M129.119 137.839L129.297 138.172L129.176 138.532C128.795 138.74 128.88 138.715 128.655 138.748C125.58 139.187 122.201 141.427 119.738 143.329C115.49 146.602 112.909 150.241 109.802 154.493C109.796 154.498 109.486 154.714 109.48 154.718L109.12 154.686L109.114 154.682L108.898 154.394C108.93 153.928 108.91 154.034 108.98 153.877C110.11 151.293 111.68 148.924 113.62 146.877C115.587 144.643 117.808 142.646 120.239 140.929C121.616 139.928 123.124 139.118 124.719 138.524C124.796 138.498 125.997 138.087 126.112 138.087C126.974 137.869 127.857 137.744 128.745 137.714L129.119 137.839Z" fill="black"/>
<path fill-rule="evenodd" clip-rule="evenodd" d="M182.52 139.009C187.318 140.314 192.465 142.362 196.349 145.576C199.593 148.193 201.843 150.946 204.155 156.131C208.724 165.862 210.39 175.797 211.181 186.515C211.314 188.855 211.794 191.411 212.201 194.918C212.403 196.582 212.45 198.261 212.341 199.933L212.167 200.281L211.807 200.411H211.8L211.459 200.241L211.326 199.881C211.474 196.467 210.527 192.501 210.109 189.746C209.36 185.192 209.291 179.43 207.445 171.123C206.615 167.119 205.41 163.203 203.845 159.425C202.499 156.288 200.635 152.199 198.316 149.667C197.66 148.936 196.96 148.245 196.219 147.599C192.566 144.31 187.168 141.688 182.222 139.967L181.934 139.715C181.934 139.704 181.897 139.349 181.897 139.339L182.138 139.057L182.52 139.009Z" fill="black"/>
<path fill-rule="evenodd" clip-rule="evenodd" d="M190.275 203.862C189.955 203.493 190.04 203.687 189.473 202.396C189.113 201.565 189.227 201.901 187.997 197.668C187.807 197.101 187.748 196.499 187.822 195.906L188.167 195.291L188.783 195.636C189.023 195.986 189.234 196.356 189.414 196.741C189.456 196.853 190.609 200.761 190.719 201.273C190.777 201.526 190.896 202.391 190.904 202.515C190.985 203.451 191 203.147 190.889 203.699L190.626 203.936C190.616 203.936 190.284 203.864 190.275 203.862Z" fill="black"/>
<path fill-rule="evenodd" clip-rule="evenodd" d="M125.675 203.245C124.122 190.069 121.366 176.366 127.717 163.994C134.114 162.518 172.867 162.353 185.461 163.418C189.88 176.893 186.877 190.612 184.268 204.112" fill="#787878"/>
<path fill-rule="evenodd" clip-rule="evenodd" d="M184.752 162.549C185.672 162.608 185.676 162.613 185.908 162.742C186.245 163.003 186.232 163.179 186.439 163.81C190.476 177.02 187.621 190.018 184.895 203.577C184.738 204.34 184.823 204.127 184.548 204.537L184.172 204.617H184.166L183.847 204.401C183.735 203.862 183.72 204.27 184.002 202.748C186.344 189.886 185.974 190.677 186.051 190.677C187.373 181.009 187.55 173.27 184.854 164.186C184.845 164.186 184.45 164.154 181.823 163.994C170.076 163.482 158.224 163.462 147.089 163.665C144.637 163.71 130.601 164.038 128.267 164.712C126.443 168.454 125.287 172.487 124.852 176.628C123.589 188.141 126.526 202.009 126.064 203.556L125.737 203.744H125.734L125.374 203.639L125.182 203.309C123.317 189.912 120.514 176.084 126.845 163.925C127.233 163.133 127.266 163.214 129.178 162.928C140.802 161.605 174.709 161.7 184.752 162.549Z" fill="#787878"/>
<path fill-rule="evenodd" clip-rule="evenodd" d="M87.3453 81.0439C87.4267 81.0972 87.3518 81.0994 87.7392 80.9863C90.5234 81.2232 93.5532 84.767 92.8656 87.4253L92.8569 87.4685C91.8669 91.2938 86.6217 90.0979 84.5582 86.6923C84.1376 86.0405 83.8693 85.3022 83.7734 84.5323C83.7017 83.9831 83.7716 83.4247 83.9765 82.9102C84.2068 82.2369 84.679 81.6731 85.3015 81.3283C85.924 80.9834 86.6524 80.8821 87.3453 81.0439V81.0439ZM87.2222 82.0325C86.9291 82.0244 86.6383 82.0874 86.3748 82.2161C86.0958 82.376 85.8608 82.6026 85.6909 82.8757C85.521 83.1487 85.4215 83.4597 85.4013 83.7806C85.4006 83.8119 85.397 83.843 85.3905 83.8735C85.2048 85.0824 86.351 87.192 88.7544 88.0495C89.2203 88.2251 89.7248 88.2723 90.2153 88.1863C90.4777 88.112 90.7153 87.9683 90.9031 87.7704C91.0909 87.5725 91.2219 87.3277 91.2823 87.0617V87.0617C91.3848 86.6289 91.356 86.1755 91.1995 85.7592C91.0373 85.2753 90.8199 84.8116 90.5515 84.3775C90.232 83.7882 89.7981 83.2685 89.2753 82.8489C88.7525 82.4293 88.1512 82.1182 87.5066 81.9338L87.2222 82.0325Z" fill="#010000"/>
<path fill-rule="evenodd" clip-rule="evenodd" d="M94.9162 76.9082C96.3382 76.9385 97.8271 78.6226 97.7501 80.3844C97.6572 82.5206 94.8024 83.7684 92.9671 81.0554C92.6946 80.6705 92.5328 80.2182 92.4996 79.7477C92.4663 79.2772 92.5628 78.8066 92.7785 78.3871C92.8622 78.2331 92.9642 78.0897 93.0823 77.9602C93.6907 77.3935 93.505 77.6945 93.6504 77.4029C93.8185 77.2412 94.0168 77.1143 94.234 77.0294C94.4512 76.9445 94.683 76.9033 94.9162 76.9082V76.9082ZM94.4122 78.1373L94.3639 78.2431C94.2339 78.3902 94.1409 78.5662 94.0925 78.7565V78.773L94.0853 78.7889C94.0716 78.8444 94.0624 78.901 94.0579 78.9581L94.0543 78.9732V79.0488V79.0639V79.1086V79.1237V79.1388V79.1532V79.1683V79.1827V79.2V79.2151V79.2302V79.2446V79.2598L94.063 79.3037V79.3188C94.0648 79.3322 94.0674 79.3454 94.0709 79.3584V79.3634L94.0759 79.3937V79.4088C94.0853 79.4606 94.0889 79.4808 94.1033 79.5413V79.5456C94.1033 79.565 94.1163 79.6176 94.1191 79.6399L94.1249 79.6558L94.1299 79.6874L94.1364 79.7033V79.7198L94.1429 79.7357V79.7515L94.1494 79.7681V79.7839C94.4626 80.6371 95.0623 80.9971 95.4641 80.9741C95.6269 80.959 95.7818 80.8967 95.9098 80.7948L95.9443 80.7646V80.7581C95.9606 80.7421 95.9758 80.725 95.9897 80.707V80.6998L95.9969 80.6933L96.0041 80.6796L96.0113 80.6724L96.0329 80.627L96.0401 80.6191V80.6105L96.0473 80.6018V80.5939V80.5846C96.0538 80.568 96.0559 80.5637 96.0653 80.5385V80.5284L96.0725 80.5082V80.496V80.4852L96.0768 80.4744V80.4629L96.0811 80.4514V80.4398L96.0855 80.4283V80.4038L96.0898 80.3923V80.3398V80.3268V80.2994V80.2858V80.2282V80.213V80.1979V80.1828V80.167V80.1518V80.136L96.0847 80.1043V80.0885C95.9919 79.272 95.2085 77.8831 94.4151 78.1373H94.4122Z" fill="#010000"/>
<path fill-rule="evenodd" clip-rule="evenodd" d="M113.81 80.2858C114.201 80.3039 114.589 80.3635 114.967 80.4636C115.538 80.5761 116.074 80.8256 116.528 81.1907C116.982 81.5557 117.34 82.0254 117.572 82.5595C118.353 84.2926 117.135 85.9565 114.753 85.5274C113.782 85.375 112.865 84.9786 112.089 84.3754C110.341 82.8 111.213 80.2721 113.81 80.2858ZM114.206 81.6235C113.918 81.6771 113.638 81.7697 113.375 81.8986V81.8986C113.324 81.9214 113.274 81.9471 113.226 81.9756C112.938 82.1376 112.949 82.1621 112.879 82.2391C112.871 82.2481 112.864 82.2574 112.858 82.2672V82.2672L112.854 82.2708V82.2758L112.847 82.2838V82.2881V82.2924V82.2967L112.84 82.3054V82.314V82.3183V82.3226L112.836 82.327V82.3313V82.3356V82.345V82.3493V82.3586V82.3637V82.3781V82.3831V82.4112V82.417V82.4616V82.4695V82.499V82.5077V82.5242V82.5329V82.5509L112.842 82.5696V82.5797L112.848 82.5998V82.6099C112.856 82.6373 112.864 82.6726 112.871 82.6999L112.877 82.7107L112.886 82.741L112.892 82.7518L112.897 82.7719L112.904 82.782V82.7921L112.91 82.8022V82.8115L112.928 82.8418V82.8518L112.966 82.9123L112.975 82.9224L112.987 82.9426L112.997 82.9526L113.003 82.9627L113.013 82.9728L113.019 82.9829L113.038 83.0038L113.044 83.0138C113.707 83.7173 115.492 84.1802 116.057 83.8469L116.084 83.831V83.8267L116.098 83.8195L116.104 83.8123L116.112 83.8087C116.14 83.7814 116.13 83.7922 116.146 83.7763L116.153 83.7706L116.159 83.7641V83.736V83.7317V83.723V83.7187V83.7137L116.163 83.7086V83.7036V83.6986V83.6935L116.17 83.6827V83.664V83.6575V83.6446V83.6381V83.6302V83.623V83.6158V83.6078V83.5733V83.5639C116.184 83.3512 116.146 83.1382 116.058 82.944V82.944C115.843 82.375 115.445 81.8936 114.926 81.576H114.92C114.681 81.5558 114.44 81.5718 114.206 81.6235Z" fill="#010000"/>
<path fill-rule="evenodd" clip-rule="evenodd" d="M120.286 129.19C118.945 128.74 117.743 127.952 116.797 126.901C114.448 130.578 112.229 133.607 109.337 137.668C108.689 138.578 107.265 140.797 107.991 141.974C109.198 143.941 111.476 140.914 112.299 139.779C115.452 135.41 116.865 133.525 120.3 129.138" fill="black"/>
<path fill-rule="evenodd" clip-rule="evenodd" d="M116.928 126.181C117.256 126.276 117.281 126.346 117.5 126.605C118.258 127.475 119.198 128.166 120.254 128.631V128.631L120.623 128.724L120.804 129.061C120.736 129.304 120.746 129.237 120.755 129.353L120.712 129.396L120.698 129.447C113.233 139.743 112.907 140.535 111.588 141.937C110.967 142.717 110.086 143.247 109.106 143.43C108.763 143.447 108.422 143.371 108.118 143.211C107.814 143.051 107.559 142.813 107.378 142.521C107.149 142.149 107.012 141.727 106.976 141.292C106.941 140.856 107.009 140.418 107.175 140.013C107.717 138.246 109.099 136.621 112.15 132.318C116.518 126.035 116.238 126.119 116.928 126.181ZM108.784 140.34C108.646 140.67 108.592 141.03 108.626 141.387V141.401C108.635 141.43 108.643 141.45 108.657 141.492L108.66 141.498L108.667 141.511V141.517V141.521V141.528C108.698 141.576 108.731 141.623 108.768 141.666C108.788 141.692 108.824 141.731 108.825 141.732H108.832L108.839 141.738L108.843 141.744H108.85H108.857L108.867 141.753H108.874L108.881 141.759L108.888 141.766H108.895L108.909 141.772H108.915H108.922H108.929H108.942L109.022 141.766L109.031 141.762H109.044L109.054 141.757H109.064H109.07H109.08L109.09 141.753H109.099L109.129 141.741H109.138C109.169 141.731 109.154 141.734 109.184 141.725L109.194 141.718C109.262 141.692 109.327 141.66 109.39 141.623V141.623C110.493 140.97 111.678 139.17 112.45 138.105C114.507 135.255 117.244 131.946 119.367 129.393C118.989 129.255 118.622 129.091 118.268 128.901C117.795 128.654 117.349 128.36 116.936 128.022C113.705 133.389 109.376 138.475 108.78 140.34H108.784Z" fill="#010000"/>
<path fill-rule="evenodd" clip-rule="evenodd" d="M131.599 86.5008C137.474 86.66 143.055 89.1083 147.151 93.3235C151.247 97.5388 153.534 103.187 153.524 109.065C153.525 111.059 153.278 113.045 152.789 114.978V114.988C151.399 120.376 148.118 125.086 143.545 128.258C138.972 131.43 133.412 132.853 127.877 132.268C125.948 132.079 124.052 131.638 122.239 130.954C117.871 129.331 114.092 126.433 111.394 122.635C108.695 118.836 107.201 114.314 107.106 109.656C107.044 106.153 107.796 102.684 109.303 99.5213C110.324 97.38 111.668 95.4089 113.29 93.6778C115.611 91.1891 118.461 89.2526 121.629 88.0106C124.798 86.7685 128.205 86.2526 131.599 86.5008V86.5008ZM128.013 88.3217C124.483 88.7781 121.127 90.1243 118.26 92.2337C115.393 94.3432 113.11 97.1467 111.624 100.381C110.129 103.652 109.51 107.256 109.828 110.838C110.255 116.055 112.657 120.912 116.545 124.417C120.432 127.921 125.512 129.809 130.745 129.694C135.978 129.579 140.969 127.47 144.699 123.798C148.429 120.126 150.616 115.168 150.813 109.938C150.854 108.722 150.793 107.506 150.63 106.301C150.305 103.972 149.577 101.717 148.478 99.6386C146.451 95.6786 143.231 92.4551 139.273 90.4226C135.833 88.5608 131.896 87.826 128.016 88.3217H128.013ZM131.599 86.503C131.286 86.4965 131.284 86.4958 131.599 86.503V86.503Z" fill="#010000"/>
<path d="M137.372 106.832C137.467 104.637 136.211 102.8 134.565 102.728C132.919 102.657 131.507 104.377 131.411 106.572C131.316 108.766 132.573 110.604 134.218 110.675C135.864 110.747 137.276 109.026 137.372 106.832Z" fill="black"/>
<path fill-rule="evenodd" clip-rule="evenodd" d="M134.496 101.876C134.994 101.855 135.492 101.923 135.967 102.076C137.633 102.714 138.823 104.423 138.722 106.76C138.705 107.405 138.595 108.043 138.397 108.657C138.177 109.416 137.773 110.109 137.222 110.676C136.671 111.242 135.989 111.665 135.236 111.906C134.619 112.063 133.971 112.058 133.356 111.893C132.74 111.728 132.178 111.408 131.721 110.964C131.161 110.428 130.73 109.771 130.462 109.044C129.192 105.756 131.251 101.736 134.496 101.876ZM134.535 103.566C132.926 103.854 132.468 106.127 132.865 107.709C132.919 108.064 133.065 108.398 133.289 108.679C133.512 108.96 133.805 109.178 134.139 109.31H134.155L134.168 109.315H134.185H134.202H134.214L134.231 109.319H134.324H134.34H134.357H134.37H134.387H134.4H134.417C134.724 109.231 135.004 109.07 135.235 108.849C135.466 108.629 135.64 108.356 135.742 108.053C136.518 106.335 135.581 103.862 134.536 103.553L134.535 103.566Z" fill="#010000"/>
<path fill-rule="evenodd" clip-rule="evenodd" d="M146 101.995L146.103 102.375C146.066 103.869 145.94 105.359 145.727 106.839C145.433 109.168 145.444 110.361 144.757 116.122C144.593 116.755 144.508 117.406 144.504 118.061L144.509 118.094V118.111C144.519 118.179 144.536 118.245 144.56 118.309L144.567 118.315V118.326L144.573 118.333V118.343L144.579 118.353L144.585 118.36C144.675 118.51 144.937 118.627 145.372 118.72C145.624 118.768 145.472 118.703 145.907 118.943L146.034 119.29V119.293L145.86 119.624C145.454 119.778 145.532 119.772 145.264 119.76C144.905 119.785 144.546 119.716 144.221 119.561C143.896 119.406 143.616 119.17 143.408 118.876V118.876C143.234 118.555 143.135 118.197 143.12 117.832C143.031 115.874 143.658 111.666 143.8 109.857C143.898 108.957 143.81 108.956 144.244 105.594C144.42 104.428 144.715 103.284 145.126 102.179L145.368 101.874L145.71 101.793C145.721 101.793 145.991 101.989 146 101.995Z" fill="#010000"/>
<path fill-rule="evenodd" clip-rule="evenodd" d="M127.703 91.7669C128.504 91.7605 129.293 91.9654 129.989 92.3609C130.299 92.5398 130.565 92.7845 130.769 93.0778C130.973 93.3711 131.11 93.7058 131.17 94.0579C131.628 97.0099 126.716 100.012 124.564 101.85C123.332 102.941 122.24 103.964 120.604 104.189C118.333 104.317 117.605 102.085 117.965 99.8611C118.066 99.2532 118.271 98.6672 118.572 98.1295C119.929 95.5283 122.166 93.4934 124.883 92.3875C125.924 91.9678 125.767 92.0275 126.138 92.0441L126.31 91.9217C126.766 91.8125 127.234 91.7605 127.703 91.7669V91.7669ZM126.509 92.9189L126.289 92.8699C124.498 93.8468 122.895 95.1323 121.552 96.6672C120.827 97.4688 120.231 98.3785 119.786 99.3636C119.596 99.8235 119.501 100.316 119.503 100.814C119.506 101.311 119.608 101.803 119.802 102.26V102.27L119.812 102.28L119.824 102.301L119.83 102.308L119.843 102.329L119.849 102.335L119.855 102.345L119.868 102.36L119.874 102.37L119.881 102.376L119.89 102.383V102.39L119.9 102.397L119.925 102.425H119.932L119.944 102.439H119.951L119.957 102.446H119.963L119.97 102.452H119.976L119.983 102.46L120.002 102.47L120.008 102.477L120.073 102.513H120.083C120.092 102.519 120.102 102.524 120.113 102.527H120.119C120.125 102.529 120.13 102.531 120.136 102.534H120.145H120.151H120.161C120.167 102.538 120.172 102.54 120.178 102.542H120.197L120.208 102.546H120.227H120.237L120.373 102.552H120.386H120.403H120.416H120.433H120.446C120.784 102.5 121.11 102.388 121.409 102.222C121.914 101.935 122.385 101.593 122.814 101.202C126.281 98.2354 128.042 97.339 129.366 95.423C129.477 95.2556 129.573 95.079 129.654 94.8953C129.715 94.7578 129.757 94.6124 129.779 94.4633L129.783 94.4474V94.4143V94.4006L129.787 94.3085V94.2948V94.2516V94.2386V94.225L129.781 94.1983V94.1854L129.776 94.158V94.145C129.766 94.0975 129.758 94.0666 129.754 94.0414L129.748 94.0313L129.742 94.0046L129.736 93.9938V93.9809L129.73 93.9708V93.9571C129.725 93.9494 129.721 93.9415 129.717 93.9334V93.9197C129.621 93.7149 129.47 93.5405 129.281 93.4157C129.203 93.3594 129.122 93.3073 129.039 93.2594L129.019 93.2515L129.003 93.2414C128.223 92.8854 127.354 92.773 126.509 92.9189V92.9189Z" fill="#010000"/>
<path fill-rule="evenodd" clip-rule="evenodd" d="M117.894 108.504C118.279 108.737 118.214 108.676 118.254 108.792C118.428 108.777 118.318 108.766 118.512 108.82C118.743 108.895 118.965 108.997 119.172 109.124C119.605 109.407 119.97 109.781 120.242 110.22C120.514 110.66 120.686 111.154 120.746 111.667C120.877 112.529 120.775 113.409 120.452 114.219V114.219C120.277 114.746 119.979 115.225 119.583 115.615C119.188 116.005 118.705 116.296 118.175 116.465C117.646 116.633 117.083 116.673 116.535 116.582C115.987 116.491 115.467 116.272 115.02 115.942C113.572 114.96 113.207 112.879 113.792 111.238C113.954 110.631 114.262 110.072 114.689 109.611C115.115 109.149 115.647 108.798 116.24 108.588C116.775 108.419 117.345 108.39 117.894 108.504V108.504ZM117.765 109.497C117.441 109.52 117.126 109.615 116.844 109.776V109.776C116.418 110.043 116.058 110.404 115.793 110.831V110.831C115.635 111.053 115.506 111.295 115.41 111.551C115.345 111.736 115.289 111.924 115.243 112.114C114.996 113.116 115.284 114.363 116.225 114.764C116.68 114.993 117.205 115.045 117.696 114.908C117.988 114.789 118.252 114.609 118.47 114.38C118.689 114.151 118.856 113.878 118.961 113.58V113.58C119.053 113.375 119.127 113.164 119.184 112.946C119.271 112.606 119.314 112.255 119.312 111.904C119.314 111.507 119.232 111.114 119.071 110.752C118.872 110.295 118.507 109.93 118.05 109.732V109.732L117.805 109.493C117.792 109.496 117.778 109.498 117.765 109.499V109.497Z" fill="#010000"/>
<path fill-rule="evenodd" clip-rule="evenodd" d="M18.6336 96.8818C20.6476 96.9443 22.6365 97.3462 24.5167 98.0705C27.0749 98.9935 26.6249 98.7905 27.0022 99.1246L27.0461 99.4846L27.0425 99.491L26.8042 99.769L26.424 99.8222C24.039 99.1551 21.5949 98.7211 19.1261 98.5262C18.4461 98.438 17.7549 98.5327 17.1238 98.8006L17.1065 98.8063C16.6442 99.0881 16.2581 99.479 15.9819 99.9446H15.9783C15.385 101.033 14.9583 102.204 14.7125 103.419C14.0076 106.534 13.7741 109.738 14.0199 112.923C14.1538 114.823 14.4684 117.194 15.9343 118.395C17.7343 119.874 21.343 119.475 23.6686 119.107C25.6551 118.824 25.1007 118.781 25.7371 118.925L25.9531 119.24L25.8703 119.611L25.5492 119.833C23.8553 120.257 22.1364 120.573 20.4027 120.779C18.1267 121.016 15.4152 120.57 14.0523 118.745C11.6575 115.871 12.1579 107.369 12.9874 103.678C13.4871 101.439 14.1804 98.7818 16.0956 97.5168C16.4331 97.2951 16.8045 97.1297 17.1951 97.0272C17.6659 96.9144 18.1498 96.8655 18.6336 96.8818V96.8818Z" fill="#010000"/>
<path fill-rule="evenodd" clip-rule="evenodd" d="M19.0368 99.5134C19.6041 100.09 20.0482 100.776 20.3421 101.529V101.529C20.9563 103.126 21.0319 105.579 21.0369 107.289C21.0067 109.479 20.7292 111.658 20.2097 113.784V113.791C19.9785 114.68 20.0505 114.374 19.9721 114.67C19.5494 115.918 19.1397 117.184 18.0137 117.982L17.6349 118.079L17.3037 117.901L17.213 117.546L17.388 117.192C18.036 116.61 18.3794 115.171 18.5285 114.312C19.1714 110.784 19.6697 108.264 19.301 104.49C19.1685 103.221 18.9237 102.051 18.9036 101.97C18.7925 101.322 18.5753 100.697 18.2606 100.12L18.185 99.7358L18.3441 99.4241L18.6897 99.3398L19.0368 99.5134Z" fill="#010000"/>
<path fill-rule="evenodd" clip-rule="evenodd" d="M19.6366 101.808C17.789 104.612 17.5212 107.474 17.3657 110.457C17.3323 111.084 17.3436 111.713 17.3995 112.339C17.4542 112.915 17.4679 114.724 18.0266 115.147C18.1073 115.211 18.4586 114.881 18.5227 114.811C19.9548 113.268 20.0505 107.333 20.0556 105.218C20.0491 104.829 20.0729 102.303 19.2218 102.65" fill="black"/>
<path fill-rule="evenodd" clip-rule="evenodd" d="M19.9073 101.39L19.9138 101.393L20.106 101.696C20.0398 102.2 20.0887 102 19.9404 102.306C20.5834 102.807 20.6986 104.578 20.7209 105.395C20.8771 107.892 20.7526 112.791 19.4559 114.937C19.0073 115.616 18.2477 116.276 17.5536 115.806C16.8927 115.309 16.7249 114.213 16.6601 113.329C16.5711 112.463 16.5326 111.593 16.5449 110.723C16.7069 107.007 16.9647 104.471 19.224 101.535V101.532L19.5545 101.331L19.9073 101.39ZM18.2765 108.895C18.1896 109.795 18.1535 110.699 18.1685 111.604C18.1685 111.725 18.2779 113.393 18.3197 113.604C19.1621 111.406 19.4875 104.955 19.3709 103.648C18.7891 105.345 18.4215 107.107 18.2765 108.895V108.895Z" fill="#010000"/>
<path fill-rule="evenodd" clip-rule="evenodd" d="M40.104 95.7182C40.1422 95.7269 53.5047 99.144 53.9151 99.2621C57.6404 100.277 58.4972 100.517 59.4144 100.958C60.137 101.289 60.7703 101.788 61.262 102.412C62.262 103.704 62.558 105.669 62.6379 107.299C62.6824 108.211 62.6125 109.125 62.4298 110.02C62.1483 111.141 61.8 112.245 61.3865 113.324L61.1352 113.612L60.7652 113.653C60.7601 113.647 60.4829 113.412 60.4772 113.408C60.3972 112.714 60.3591 113.552 61.1036 110.528C61.2207 110.005 61.293 109.473 61.3196 108.938C61.3916 107.276 61.0114 104.314 59.899 103.25C59.1128 101.954 51.668 100.396 43.771 98.3541C40.8802 97.6061 36.5616 96.2921 33.5837 96.5333C32.9854 96.5954 32.4283 96.8672 32.0112 97.3008C31.6501 97.658 31.3134 98.039 31.0032 98.4413C30.2617 99.418 29.6427 100.482 29.16 101.609C28.2228 103.857 27.6551 106.242 27.4788 108.672C27.2762 110.984 27.4525 113.313 28.0008 115.568C28.2179 116.529 28.6441 117.43 29.2493 118.207C31.2696 120.648 36.5127 119.995 39.654 119.685H39.6576L40.0306 119.797L40.2221 120.128V120.134L40.117 120.501L39.7764 120.695C39.4452 120.681 35.2476 121.553 31.9436 121.024C27.522 120.317 26.5594 117.027 25.9272 112.694C25.4178 107.994 26.3537 103.251 28.61 99.0972C29.3729 97.7106 30.4075 96.4921 31.652 95.5145C32.0421 95.2823 32.4659 95.1123 32.9084 95.0105C34.9287 94.5914 37.3968 95.1329 40.104 95.7182Z" fill="#010000"/>
<path fill-rule="evenodd" clip-rule="evenodd" d="M25.3166 105.297V105.284L25.3361 105.295L25.3591 105.302V105.289L25.4016 105.304V105.288C25.4143 105.293 25.4276 105.297 25.4412 105.299V105.283L25.4707 105.291L25.4649 105.273L25.4973 105.282L25.4916 105.265H25.5211L25.5153 105.248H25.542L25.5362 105.232L25.5456 105.235H25.5593L25.5499 105.218H25.56H25.5693L25.5571 105.201H25.56H25.5693C25.5656 105.195 25.5615 105.189 25.5571 105.183V105.183L25.5506 105.177H25.5542H25.5506L25.5571 105.183L25.5506 105.177L25.5571 105.183V105.18L25.5629 105.187H25.5693L25.5758 105.194H25.5823V105.198L25.6082 105.212H25.6147C25.8057 105.277 26.0007 105.328 26.1986 105.367C26.3649 105.439 26.388 105.486 26.5154 105.55C26.8661 105.829 26.4434 105.419 27.2714 106.25C26.6414 106.726 26.5903 106.816 26.0474 106.946C25.9559 106.96 25.8624 106.956 25.7724 106.934C25.1739 106.866 24.6225 106.577 24.2258 106.124V106.12C24.164 105.996 24.1354 105.857 24.1426 105.719C24.1498 105.58 24.1926 105.445 24.2669 105.328L25.2619 105.256L25.3166 105.297Z" fill="#010000"/>
<path fill-rule="evenodd" clip-rule="evenodd" d="M26.7754 112.154C26.9914 112.275 26.7804 112.09 27.427 112.747C27.1476 113.057 26.8081 113.308 26.4291 113.483V113.483L26.3275 113.528H26.3239C26.2917 113.538 26.2602 113.55 26.2296 113.564C25.9658 113.594 25.7107 113.677 25.4794 113.807L25.4686 113.816L25.4585 113.823H25.4549L25.4383 113.832L25.4283 113.841L25.4074 113.854L25.3973 113.864L25.3872 113.869L25.3692 113.885L25.3418 113.91L25.3311 113.917L25.3073 113.939H25.3001H25.2871L25.2735 113.945H25.267H25.2569C25.2569 113.945 24.9905 113.952 24.9775 113.952C24.7975 113.944 25.0459 114.084 24.0502 113.394V113.388C24.0761 112.793 24.156 112.761 24.4757 112.517C24.7237 112.339 24.9986 112.2 25.29 112.108C25.5244 112.001 25.7804 111.949 26.0381 111.957C26.2958 111.965 26.5481 112.033 26.7754 112.154V112.154Z" fill="#010000"/>
<path fill-rule="evenodd" clip-rule="evenodd" d="M34.619 97.8969L34.6406 97.925H34.6471C35.3861 98.7251 35.9483 99.6718 36.2973 100.704C36.4946 101.39 36.4572 101.151 36.4536 101.228C36.4788 101.324 36.5436 101.614 36.5601 101.691C36.96 103.7 37.0924 105.754 36.954 107.798C36.8359 110.045 36.3562 112.259 35.5334 114.354C34.8854 115.913 34.0675 118.077 32.3849 118.242C31.9529 118.223 32.1271 118.3 31.6577 118.026L31.5446 117.666V117.66L31.7311 117.339L32.1012 117.213H32.1278H32.1379H32.1609H32.171H32.184H32.1941H32.2041H32.2142H32.2243H32.2308H32.2409L32.2711 117.204H32.2812C32.2812 117.204 32.3582 117.178 32.3784 117.172L32.3856 117.166C32.3913 117.164 32.3968 117.162 32.4021 117.16L32.4122 117.153H32.4223C32.4281 117.153 32.4482 117.14 32.4569 117.135L32.4633 117.129C32.5915 117.092 32.8615 116.829 33.1524 116.306V116.299C33.4986 115.581 33.7798 114.833 33.9926 114.064C34.5613 112.503 34.961 110.886 35.1849 109.24C35.4301 107.364 35.4415 105.465 35.2188 103.586C35.1191 102.765 34.9708 101.951 34.7745 101.148C34.5831 100.226 34.2634 99.3356 33.8249 98.5025V98.5025L33.7529 98.118L33.9228 97.8069L34.2713 97.7292L34.619 97.8969Z" fill="#010000"/>
<path fill-rule="evenodd" clip-rule="evenodd" d="M35.0085 100.224C32.9335 101.251 32.1019 103.587 31.608 105.696C31.2645 107.148 30.9362 110.914 31.2206 112.231C31.482 113.579 32.4885 116.29 33.6326 115.342C35.8646 113.491 35.9424 106.857 35.8373 103.953C35.7977 102.814 35.7235 101.324 34.866 100.444" fill="black"/>
<path fill-rule="evenodd" clip-rule="evenodd" d="M35.4528 99.9972V100.004L35.4708 100.356C35.9656 101.017 36.2719 101.8 36.3571 102.621C36.4877 103.659 36.5651 104.703 36.5889 105.749C36.7106 108.142 36.472 110.539 35.8812 112.86C35.496 114.293 34.5211 116.42 33.0681 116.357C31.8261 116.302 31.0961 114.647 30.7094 113.464C30.2911 112.008 30.1853 111.617 30.4013 108.438C30.4344 107.681 30.6396 106.407 30.672 106.181C31.2005 103.488 32.225 100.918 34.7357 99.7963C34.8127 99.7675 34.7263 99.7805 35.1677 99.7661L35.4528 99.9972ZM32.2747 106.473C32.0923 107.611 31.9812 108.76 31.9421 109.912C31.9144 110.59 31.9315 111.269 31.9932 111.944C32.1607 112.932 32.5482 113.87 33.1272 114.687L33.1373 114.695C33.2426 114.603 33.339 114.501 33.4253 114.391C35.0877 112.494 35.4053 103.776 35.0539 102.059C35.0104 101.828 34.9436 101.602 34.8545 101.384C34.8087 101.269 34.7536 101.157 34.6896 101.051C33.2575 102.371 32.711 104.4 32.2747 106.473Z" fill="#010000"/>
<path fill-rule="evenodd" clip-rule="evenodd" d="M34.6356 103.67C34.6619 104.108 34.5813 104.547 34.4009 104.947V104.947C33.4649 107.488 34.0229 106.753 33.0394 109.317L32.7924 109.658L32.472 109.773H32.4655L32.184 109.584C32.059 109.341 31.9969 109.07 32.0033 108.796C31.9624 108.368 31.9624 107.938 32.0033 107.51C32.1983 106.433 32.4941 105.378 32.8867 104.357C33.0037 103.996 33.2201 103.676 33.511 103.432C33.8069 103.161 33.6111 103.26 34.4189 103L34.6356 103.67Z" fill="white"/>
<path fill-rule="evenodd" clip-rule="evenodd" d="M19.512 107.804C19.4971 108.342 19.3713 108.87 19.1426 109.357C18.9885 109.711 19.1361 109.522 18.4853 110.122C17.9669 109.458 18.0345 109.605 17.9597 109.258C17.7895 108.459 17.7971 107.633 17.982 106.837C18.0749 105.954 18.0713 105.938 18.144 105.78C18.2428 105.606 18.3532 105.439 18.4745 105.28L19.0274 104.843C19.8641 105.893 19.7373 105.684 19.512 107.804Z" fill="white"/>
<path fill-rule="evenodd" clip-rule="evenodd" d="M62.9467 107.601C63.4834 107.568 64.0138 107.732 64.4393 108.06C65.6049 108.912 65.8073 110.724 65.6121 112.123C65.2788 114.435 63.7769 115.562 62.0885 115.489C61.7936 115.465 61.5046 115.394 61.2324 115.278L60.9444 115.004C60.9444 114.999 60.8997 114.644 60.9005 114.644L61.1409 114.379C61.8761 114.264 61.9005 114.375 62.2987 114.224C62.5276 114.148 62.74 114.029 62.9244 113.873V113.873C63.3147 113.551 63.618 113.137 63.8064 112.668C64.1282 111.89 64.1801 109.997 63.5803 109.477V109.47L63.5709 109.463L63.5594 109.44C63.5551 109.44 63.4601 109.354 63.4572 109.353C63.4149 109.328 63.374 109.3 63.3348 109.271H63.3283C63.2346 109.204 63.1364 109.143 63.0345 109.089V109.089C62.9076 109.012 62.7723 108.951 62.6313 108.905V108.905C62.4521 108.833 62.087 108.725 62.0093 108.703L61.6665 108.492L61.5341 108.187L61.6932 107.896L62.0532 107.712H62.0697C62.3573 107.644 62.6513 107.607 62.9467 107.601Z" fill="black"/>
<path fill-rule="evenodd" clip-rule="evenodd" d="M91.0498 138.758C91.1592 139.381 91.3061 139.139 88.9927 141.122C87.9394 142.038 82.7518 145.981 79.8055 147.861C79.7918 147.871 79.619 147.994 79.6104 147.998L79.2338 148.118L78.907 148.008L78.7853 147.687L78.8976 147.307V147.303C78.9696 147.218 78.8846 147.29 79.493 146.517C80.1761 145.729 80.9754 145.049 81.8633 144.501C85.6735 141.79 86.0717 141.051 90.3218 138.646L90.7265 138.574L91.0498 138.758Z" fill="black"/>
<path fill-rule="evenodd" clip-rule="evenodd" d="M153.102 189.294C153.481 189.507 153.839 189.756 154.171 190.037C155.683 191.758 156.784 192.419 158.091 193.731C158.648 194.293 158.401 193.94 158.731 194.492L158.7 194.838L158.403 195.025L157.986 194.99C157.292 194.739 156.632 194.404 156.019 193.992C155.143 193.301 154.317 192.549 153.546 191.742C152.991 191.263 152.578 190.64 152.354 189.942L152.348 189.932L152.408 189.231L153.102 189.294Z" fill="black"/>
</svg>
