<svg width="489" height="489" viewBox="0 0 489 489" fill="none" xmlns="http://www.w3.org/2000/svg">
<path d="M47.1885 204.925C97.1089 204.469 146.832 205.044 196.806 204.053C197.083 204.005 197.367 204.015 197.64 204.084C197.913 204.152 198.168 204.277 198.389 204.451C198.611 204.624 198.793 204.842 198.925 205.091C199.057 205.339 199.135 205.613 199.154 205.893C199.174 206.174 199.134 206.455 199.037 206.719C198.941 206.983 198.79 207.225 198.595 207.427C198.4 207.629 198.164 207.788 197.903 207.893C197.643 207.999 197.363 208.048 197.082 208.039C147.67 209.017 96.8448 210.143 47.4591 208.834C44.6131 208.759 44.261 204.953 47.1885 204.925ZM159.386 129.259C167.711 166.333 116.68 187.033 93.456 163.58C82.804 152.816 81.1332 135.29 86.9279 121.74C95.5816 101.503 117.924 95.694 137.314 104.005C147.883 108.535 156.707 117.319 159.386 129.259ZM154.765 125.086C153.19 121.032 150.778 117.355 147.685 114.295C144.593 111.236 140.89 108.864 136.819 107.332C115.052 99.7087 93.976 104.072 87.6761 128.407C84.3492 141.253 87.932 156.811 99.2148 164.703C125.138 182.837 168.151 157.658 154.765 125.088V125.086ZM49.0157 93.2637C49.0157 92.0265 47.0059 92.0559 46.8967 93.2474C44.186 121.758 45.5275 151.627 45.6286 180.289C45.6449 184.586 47.1461 184.901 49.8356 185.077C92.5644 187.89 151.235 186.314 193.879 184.425C195.419 184.356 195.463 181.738 193.879 181.711C146.237 180.819 96.1195 184.094 49.2407 181.282C49.9742 152.535 49.1673 122.185 49.0157 93.2637ZM198.14 182.201C198.303 183.471 200.819 183.642 200.793 182.221C200.236 152.279 200.493 122.115 199.719 92.2661C199.611 88.1618 199.541 88.5171 195.088 88.3362C149.448 86.5595 98.5367 87.4365 53.0793 90.0542C52.7335 90.0702 52.4081 90.223 52.1749 90.4788C51.9417 90.7347 51.8196 91.0727 51.8356 91.4185C51.8516 91.7644 52.0043 92.0897 52.2602 92.3229C52.5161 92.5562 52.8541 92.6782 53.1999 92.6622C100.877 92.4992 149.067 90.5726 196.689 92.1146C194.948 115.833 195.181 158.948 198.14 182.201V182.201ZM137.82 136.319C132.217 133.032 124.348 127.89 118.071 124.459C113.88 122.164 113.554 125.305 116.553 127.38C120.781 130.304 128.631 134.054 134.05 137.841C127.833 141.673 121.873 145.712 115.546 149.531C114.64 141.192 114.221 132.984 113.026 124.622C112.812 123.122 110.729 123.561 110.768 124.984C111.021 134.244 112.291 143.341 112.607 152.477C112.646 152.724 112.742 152.958 112.886 153.162C113.031 153.366 113.22 153.534 113.44 153.654C113.66 153.773 113.904 153.84 114.154 153.849C114.404 153.859 114.652 153.811 114.881 153.709C120.328 150.894 133.38 143.151 138.211 138.949C138.405 138.772 138.553 138.55 138.642 138.303C138.73 138.055 138.756 137.79 138.717 137.53C138.679 137.269 138.577 137.023 138.42 136.812C138.264 136.601 138.057 136.431 137.82 136.319V136.319ZM292.507 113.254C299.328 112.816 299.092 108.406 292.063 108.897C270.567 110.398 248.565 109.989 227.026 109.437C217.55 109.194 216.607 113.13 226.337 113.499C247.362 114.297 271.569 114.597 292.5 113.254H292.507ZM313.605 188.462C313.978 181.375 313.934 174.273 313.475 167.191C313.376 166.115 311.411 165.967 311.227 167.062C310.306 172.571 311.472 182.596 311.247 188.578C311.191 189.869 313.517 189.756 313.599 188.462H313.605ZM49.9204 40.0263C77.1593 39.9464 280.107 38.6359 290.844 39.0711C314.46 40.0295 315.858 67.702 313.027 68.1438C310.008 68.6148 28.6847 66.7844 25.7165 66.5464C23.6529 66.3801 22.6814 40.1062 49.9204 40.0263ZM286.922 55.0223C286.915 55.7643 287.066 56.4993 287.367 57.1777C287.668 57.856 288.111 58.4619 288.666 58.9545C289.221 59.4471 289.875 59.8148 290.584 60.0329C291.294 60.251 292.041 60.3144 292.777 60.2187C293.539 60.1021 294.265 59.8194 294.905 59.3905C295.544 58.9617 296.082 58.3973 296.479 57.7374C296.876 57.0775 297.123 56.3382 297.202 55.5722C297.281 54.8061 297.191 54.032 296.937 53.3048C296.684 52.5775 296.273 51.9151 295.735 51.3643C295.197 50.8136 294.544 50.3882 293.822 50.1182C293.101 49.8482 292.329 49.7403 291.561 49.8022C290.794 49.8641 290.049 50.0942 289.38 50.4762C288.616 50.9587 287.988 51.6297 287.558 52.4246C287.127 53.2196 286.909 54.1118 286.922 55.0158V55.0223ZM269.276 58.4828C270.068 59.4172 271.158 60.0495 272.362 60.2726C273.566 60.4957 274.81 60.2958 275.884 59.7069C276.87 59.0359 277.612 58.065 278.002 56.9383C278.392 55.8116 278.409 54.5892 278.049 53.4526C277.628 52.3234 276.839 51.3688 275.809 50.7427C274.78 50.1167 273.569 49.8557 272.373 50.0019C271.465 50.1486 270.613 50.5348 269.903 51.1206C269.194 51.7064 268.654 52.4706 268.339 53.3346C268.023 54.1985 267.944 55.131 268.108 56.0359C268.273 56.9408 268.676 57.7854 269.276 58.4828V58.4828ZM249.84 58.8088C250.709 59.5403 251.781 59.9866 252.913 60.0869C254.044 60.1872 255.179 59.9367 256.163 59.3695C259.626 57.4559 259.545 51.684 255.591 50.3246C254.439 49.9849 253.211 50.0059 252.072 50.3847C250.933 50.7635 249.937 51.482 249.219 52.4436C248.558 53.4074 248.258 54.5731 248.371 55.7361C248.484 56.8991 249.003 57.9852 249.837 58.8039L249.84 58.8088ZM311.193 74.4128C311.646 97.0339 309.64 119.666 310.844 142.449C310.914 143.784 313.162 143.691 313.141 142.397C312.777 119.963 315.143 96.7421 313.535 74.3606C313.436 73.011 311.167 73.0827 311.19 74.4079L311.193 74.4128ZM294.867 90.5025C269.511 91.6875 244.663 90.0021 219.413 89.9988C218.418 89.9988 218.234 91.7918 219.201 92.214C226.963 95.5653 283.483 95.1838 294.975 94.3183C295.466 94.2837 295.925 94.0606 296.256 93.6954C296.587 93.3303 296.764 92.8514 296.75 92.3588C296.736 91.8663 296.533 91.3981 296.182 91.0522C295.831 90.7063 295.36 90.5093 294.867 90.5025V90.5025ZM43.6318 241.077C61.7134 241.172 80.6736 242.832 95.0746 241.781C96.3786 241.685 96.5596 239.471 95.1887 239.432C78.1406 238.943 61.8194 237.848 45.6889 237.491C34.7679 237.248 28.6929 232.907 27.578 221.509C25.6986 202.265 26.437 177.825 26.3294 158.213C26.2055 136.713 28.2185 77.3924 27.71 71.3793C27.6987 71.0626 27.5724 70.7608 27.3548 70.5304C27.1372 70.3 26.8432 70.1568 26.5276 70.1274C26.2121 70.0981 25.8966 70.1846 25.6402 70.3709C25.3839 70.5572 25.2041 70.8305 25.1346 71.1397C24.419 74.6996 23.3139 118.151 22.9292 151.771C22.6847 173.072 21.7409 202.497 23.974 223.002C25.1541 233.877 32.4696 241.023 43.6318 241.077ZM239.91 237.559C208.969 239.467 173.378 238.211 141.458 239.026C140.087 239.061 140.082 241.408 141.474 241.445C173.083 242.288 208.394 240.862 239.926 240.896C241.824 240.896 241.825 237.447 239.91 237.564V237.559ZM223.975 131.283C220.321 132.149 220.801 134.514 224.49 134.516C230.332 134.516 236.642 133.864 242.694 133.79C246.565 133.745 248.22 130.693 241.915 130.204C235.914 129.922 229.899 130.284 223.975 131.282V131.283ZM323.146 286.994C320.4 278.868 316.226 271.298 310.82 264.639C310.046 263.61 311.345 262.031 312.414 262.921C319.205 269.125 323.927 277.265 325.943 286.239C333.999 284.077 342.475 284.011 350.564 286.048C358.652 288.085 366.086 292.157 372.157 297.878C373.754 256.5 339.087 228.383 304.58 225.832C299.491 237.651 277.118 242.283 272.942 230.035C255.529 233.496 230.436 246.009 221.434 260.96C232.831 260.886 240.753 260.868 246.834 261.987C252.637 263.054 256.544 267.173 256.844 272.104C257.271 281.566 258.411 290.982 260.252 300.272C264.673 288.826 275.11 285.951 284.43 285.737C292.507 285.55 312.08 289.63 323.146 286.992V286.994ZM316.52 204.017C331.651 200.849 347.186 200.079 362.556 201.735C377.573 203.31 387.078 205.302 390.625 221.784C395.917 246.383 390.408 285.949 381.932 309.63C374.638 330.005 361.273 328.081 343.443 329.436C342.073 329.54 341.707 331.902 343.211 331.951C360.176 332.505 374.507 331.832 382.286 318.026C394.279 296.737 398.626 249.16 395.109 224.79C392.804 208.832 386.028 201.155 369.752 199.036C353.066 196.862 331.868 196.389 315.783 201.589C315.476 201.699 315.224 201.922 315.077 202.213C314.931 202.505 314.902 202.841 314.997 203.153C315.091 203.465 315.302 203.728 315.586 203.889C315.869 204.049 316.204 204.095 316.52 204.016V204.017ZM393.115 208.312C404.026 212.257 415.833 216.493 423.759 225.396C441.618 245.445 432.072 278.371 427.619 301.793C422.675 327.806 417.958 353.862 413.037 379.87C411.498 388.004 414.577 390.533 416.023 383.262C421.185 357.306 426.035 331.224 430.995 305.224C435.702 280.544 445.367 247.731 428.978 225.517C420.625 214.197 406.921 209.809 393.955 206.159C392.566 205.778 391.689 207.796 393.115 208.314V208.312ZM330.034 438.682C329.423 441.215 333.219 441.93 333.848 439.256C339.482 415.33 347.133 386.88 349.858 363.157C352.018 344.357 350.478 332.244 329.216 330.231C312.15 328.601 298.028 335.467 294.921 353.41C290.86 376.862 293.291 414.758 294.129 439.79C294.125 440.105 294.247 440.407 294.466 440.632C294.686 440.857 294.986 440.985 295.301 440.988C295.615 440.992 295.918 440.87 296.142 440.65C296.367 440.431 296.495 440.131 296.499 439.816C297.222 414.778 296.081 389.014 297.579 364.212C298.605 347.223 302.676 334.644 322.334 333.65C343.938 332.559 348.251 340.797 346.359 360.923C343.953 386.452 334.015 422.229 330.039 438.68L330.034 438.682ZM434.785 401.272C437.104 396.814 444.861 388.884 449.37 388.856C453.119 388.838 450.711 396.209 451.901 400.365C461.587 401.216 463.373 401.102 469.867 407.436C470.697 408.251 471.696 407.821 470.985 406.638C469.507 404.089 467.423 401.944 464.917 400.395C468.217 395.428 473.44 392.533 475.003 392.748C477.957 393.154 474.262 403.132 476.16 411.042C477.443 416.387 479.746 422.592 477.525 428.859C475.799 433.733 473.021 438.17 464.623 440.824C456.913 443.269 442.32 441.406 435.745 437.759C445.347 431.934 441.857 417.616 427.135 422.322C407.174 428.701 397.122 430.146 376.116 426.615C374.634 426.367 374.287 428.007 375.829 428.3C392.675 431.875 410.167 430.919 426.522 425.529C434.491 423.014 440.106 428.009 436.289 433.309C432.418 438.688 422.062 440.67 415.782 441.622C396.809 444.507 376.717 442.387 367.971 441.334C351.708 439.378 360.026 397.924 402.385 392.271C414.519 390.651 426.98 394.041 433.794 398.545C430.538 404.017 428.524 410.138 427.896 416.475C427.808 417.705 429.158 417.417 429.432 416.211C430.563 411.019 432.364 405.997 434.789 401.27L434.785 401.272ZM392.284 397.311C389.816 398.615 388.085 401.85 387.231 404.409C386.284 407.168 386.151 410.14 386.848 412.972C387.174 414.292 388.509 414.421 388.507 413.031C388.463 410.405 389.015 407.803 390.123 405.422C390.532 404.546 392.744 401.086 393.624 399.645C394.548 398.144 393.769 396.533 392.289 397.309L392.284 397.311ZM404.871 394.377C401.374 396.266 399.329 400.447 398.095 404.064C396.86 407.911 396.747 412.031 397.769 415.94C398.056 417.198 399.409 417.106 399.49 415.859C399.787 411.295 400.553 404.837 403.863 400.607C404.891 399.285 405.828 397.896 406.669 396.449C407.621 394.819 406.11 393.7 404.876 394.367L404.871 394.377ZM415.559 396.907C413.487 398.827 411.796 401.121 410.576 403.669C408.972 406.971 408.441 410.692 409.057 414.31C409.306 415.596 410.687 415.818 410.833 414.406C411.238 410.881 412.466 407.501 414.419 404.538C415.52 402.856 416.788 401.29 418.206 399.865C421.844 396.162 418.947 393.914 415.564 396.905L415.559 396.907ZM466.089 420.582C466.728 420.206 467.484 420.079 468.211 420.224C468.939 420.368 469.588 420.776 470.035 421.368C471.047 422.762 472.125 421.976 471.549 420.253C471.292 419.661 470.893 419.14 470.388 418.738C469.884 418.335 469.288 418.062 468.653 417.943C468.018 417.823 467.364 417.861 466.747 418.053C466.131 418.245 465.57 418.585 465.116 419.044C464.968 419.194 464.876 419.39 464.854 419.599C464.832 419.809 464.882 420.019 464.995 420.197C465.109 420.374 465.279 420.508 465.478 420.576C465.677 420.645 465.894 420.643 466.092 420.573L466.089 420.582ZM456.004 423.707C456.167 424.915 458.314 427.375 459.671 427.309C461.269 427.233 463.508 425.56 463.352 423.963C463.195 422.366 455.771 421.927 456.007 423.697L456.004 423.707ZM448.04 419.984C448.606 419.384 449.362 418.997 450.18 418.888C450.999 418.778 451.829 418.954 452.534 419.384C453.862 420.374 455.052 419.141 453.917 417.997C453.413 417.474 452.793 417.077 452.107 416.838C451.421 416.599 450.688 416.525 449.968 416.622C449.247 416.719 448.56 416.984 447.962 417.396C447.363 417.808 446.87 418.355 446.522 418.993C445.818 420.137 447.272 420.721 448.043 419.974L448.04 419.984ZM164.177 297.488C164.723 292.935 164.992 290.697 160.141 290.461C146.195 289.785 136.281 293.305 127.722 299.967C118.366 307.248 111.316 318.909 110.667 330.918C110.615 331.217 110.684 331.526 110.859 331.775C111.035 332.023 111.301 332.192 111.601 332.244C111.901 332.297 112.209 332.227 112.458 332.052C112.707 331.877 112.876 331.61 112.928 331.311C115.127 320.031 120.307 309.718 129.539 302.551C139.344 294.939 149.821 292.53 161.901 293.415C161.063 305.498 156.099 316.927 147.841 325.788C138.046 336.233 129.911 338.557 116.897 341.505C116.633 341.578 116.405 341.745 116.253 341.973C116.102 342.202 116.038 342.477 116.073 342.749C116.108 343.021 116.24 343.271 116.444 343.454C116.648 343.637 116.912 343.74 117.186 343.744C128.503 343.602 142.183 335.902 149.867 327.842C157.689 319.466 162.693 308.852 164.177 297.488V297.488ZM262.169 439.873C258.357 431.511 248.881 420.786 238.564 422.869C232.125 424.173 225.018 431.058 221.867 436.649C220.213 439.583 220.958 442.961 224.676 443.428C233.292 444.204 241.948 444.429 250.593 444.1C259.002 444.001 271.653 443.512 279.638 441.401C281.131 441.008 280.391 438.972 279.082 438.956C273.468 438.84 267.809 439.469 262.169 439.873ZM186.71 443.399C196.425 443.948 209.672 443.908 218.875 441.639C220.303 441.288 219.665 439.259 218.365 439.259C217.028 439.259 215.693 439.305 214.36 439.352C212.268 434.235 209.719 429.031 204.669 426.269C196.549 421.833 187.973 428.238 182.394 433.882C175.181 441.177 179.269 442.979 186.71 443.399ZM82.3248 328.535C82.6499 328.52 82.9565 328.379 83.1799 328.142C83.4032 327.905 83.5258 327.591 83.5218 327.265C83.5178 326.94 83.3875 326.629 83.1583 326.397C82.9292 326.166 82.6192 326.033 82.2938 326.026C69.1674 325.962 56.4958 323.866 44.8185 317.588C27.6823 308.372 17.441 294.541 11.084 276.593C21.6154 275.289 38.5723 274.474 53.3906 278.696C75.8211 285.077 85.0306 300.362 89.262 321.829C89.5212 323.146 91.7739 322.991 91.6549 321.597C87.9271 278.466 49.2097 269.547 12.225 273.512C8.13858 273.951 7.29587 274.181 8.91935 278.469C12.8313 288.808 18.2837 299.182 25.8045 307.028C39.5275 321.346 62.3002 331.099 82.3248 328.535ZM479.743 446.199C447.924 445.384 446.421 445.547 414.597 445.58C382.773 445.613 350.926 445.807 319.092 445.849C255.749 445.932 192.405 446.114 129.06 446.395C93.5392 446.512 57.288 445.966 21.8583 447.254C20.6064 447.3 20.582 449.425 21.8404 449.464C53.64 450.442 85.5326 449.831 117.34 449.764C149.18 449.697 181.014 449.624 212.844 449.546C276.187 449.365 339.532 449.057 402.876 449.021C438.592 449 444.019 449.926 479.722 448.824C481.21 448.778 481.235 446.239 479.743 446.199ZM125.81 440.494C128.69 425.133 132.612 403.484 133.634 388.191C137.283 387.911 137.709 387.518 138.449 383.691C139.147 380.551 139.645 377.371 139.937 374.168C140.219 369.604 140.879 367.616 135.665 367.501C114.186 367.032 88.0412 366.828 66.8137 368.266C66.5205 368.282 66.245 368.411 66.0462 368.627C65.8473 368.844 65.7409 369.129 65.7496 369.422C65.7584 369.716 65.8816 369.994 66.0929 370.198C66.3042 370.402 66.5869 370.515 66.8805 370.514C90.0151 371.981 114.679 369.096 137.039 371.069C137.006 375.751 136.46 380.415 135.409 384.977C112.439 386.568 90.6264 386.341 67.6711 386.059C66.1513 381.287 65.0068 376.403 64.2481 371.453C64.0264 370.149 61.8161 370.188 61.8503 371.581C62.0364 376.622 62.9736 381.607 64.6311 386.372C65.464 388.867 67.2929 389.264 69.9563 389.246C90.5905 389.107 110.229 389.692 130.954 388.369C128.814 408.533 125.526 421.797 123.342 437.182C122.584 442.612 125.21 443.704 125.81 440.503V440.494ZM180.374 336.386C181.585 336.414 182.076 334.46 180.778 334.196C172.977 332.606 164.174 332.057 157.59 337.399C149.368 344.07 152.469 357.761 153.931 367.084C156.682 384.646 165.791 422.586 172.733 440.773C173.308 442.281 175.768 441.301 175.341 439.818C169.826 420.54 161.696 392.85 157.375 366.75C156.312 360.349 153.98 349.444 156.868 343.566C161.091 334.98 172.491 336.218 180.374 336.394V336.386ZM69.8993 393.728C70.5822 403.604 75.4788 431.399 79.1039 439.976C79.2464 440.248 79.4794 440.462 79.7629 440.581C80.0463 440.7 80.3623 440.716 80.6563 440.626C80.9502 440.537 81.2037 440.347 81.3729 440.091C81.5422 439.834 81.6165 439.527 81.5831 439.221C77.8341 424.012 75.2147 412.652 72.1943 393.335C71.9677 391.881 69.7998 392.307 69.8993 393.728ZM99.3045 298.921C99.4669 299.159 99.7133 299.326 99.9941 299.39C100.275 299.454 100.57 299.409 100.819 299.264C101.068 299.12 101.253 298.887 101.338 298.611C101.422 298.336 101.399 298.039 101.274 297.78C95.0849 286.74 93.0722 273.843 95.6027 261.442C97.5418 252.692 101.795 244.623 107.919 238.079C114.042 231.534 121.811 226.755 130.413 224.239C133.494 235.313 134.291 246.897 132.755 258.288C129.751 277.935 121.957 288.368 109.6 302.624C108.683 303.682 110.165 305.314 111.295 304.442C119.272 298.29 126.542 286.717 130.408 277.457C137.176 261.253 138.793 240.916 133.05 224.11C131.973 220.958 131.645 220.723 128.542 221.696C117.528 225.187 107.934 232.135 101.181 241.509C95.2297 249.822 91.8756 259.712 91.5417 269.931C91.2077 280.149 93.909 290.237 99.3045 298.921V298.921ZM99.7821 364.342C99.8098 365.788 102.278 365.809 102.33 364.352C102.375 363.077 102.425 361.8 102.48 360.523C113.906 336.259 125.243 323.022 146.001 306.311C146.979 305.522 145.729 303.669 144.586 304.243C128.899 312.117 110.043 337.076 102.814 353.337C104.476 317.649 107.404 291.992 116.408 256.252C116.734 254.948 114.537 254.335 114.108 255.639C105.657 281.289 101.313 315.894 100.017 342.918C90.2987 320.924 70.4616 303.325 48.5642 294.063C47.1836 293.48 46.4452 295.623 47.7737 296.233C71.513 307.061 88.9246 326.518 99.7707 349.923C99.6712 354.724 99.6892 359.521 99.7821 364.342Z" fill="#787878"/>
<path fill-rule="evenodd" clip-rule="evenodd" d="M277.517 302.155C275.398 304.913 273.633 305.224 272.272 309.156C271.247 312.222 271.381 315.557 272.648 318.531C272.768 318.797 272.78 319.1 272.681 319.374C272.583 319.649 272.381 319.874 272.119 320.003C271.857 320.132 271.555 320.153 271.278 320.064C271 319.974 270.768 319.78 270.631 319.522C269.65 317.836 269.03 315.965 268.811 314.027C268.592 312.089 268.779 310.126 269.359 308.264C270.265 305.35 273.121 300.955 276.288 300.293C276.522 300.252 276.762 300.28 276.98 300.374C277.197 300.468 277.383 300.623 277.513 300.821C277.644 301.019 277.714 301.25 277.714 301.487C277.715 301.724 277.647 301.956 277.517 302.155V302.155ZM284.821 308.176C284.952 308.016 285.037 307.823 285.069 307.619C285.1 307.414 285.076 307.205 285 307.013C284.924 306.821 284.797 306.652 284.634 306.525C284.471 306.398 284.277 306.317 284.072 306.29C280.75 306.169 277.974 310.72 277.473 313.599C277.16 315.367 277.371 317.189 278.079 318.839C278.787 320.49 279.962 321.898 281.459 322.89C281.696 323.079 281.999 323.165 282.301 323.13C282.45 323.113 282.595 323.067 282.726 322.994C282.857 322.921 282.973 322.823 283.067 322.705C283.16 322.587 283.229 322.452 283.271 322.308C283.312 322.163 283.324 322.012 283.307 321.863C283.29 321.713 283.244 321.569 283.171 321.437C283.098 321.306 282.999 321.19 282.882 321.097C281.928 320.202 281.202 319.092 280.765 317.859C280.328 316.627 280.192 315.307 280.368 314.011C281.051 310.101 283.752 309.226 284.821 308.176ZM368.251 297.229C367.999 295.731 365.674 295.902 365.682 297.335C365.746 307.17 362.422 317.402 345.346 320.786C326.292 324.562 307.495 320.013 291.23 309.824C290.998 309.664 290.712 309.601 290.434 309.649C290.155 309.697 289.907 309.852 289.741 310.081C289.576 310.31 289.506 310.594 289.547 310.873C289.588 311.152 289.736 311.405 289.961 311.576C305.423 323.495 326.843 327.61 345.902 324.047C360.14 321.385 370.959 313.348 368.251 297.229ZM296.106 326.316C294.104 326.505 265.965 327.328 264.047 326.37C262.128 325.412 254.5 300.942 252.652 277.266C252.12 270.451 251.054 267.309 242.748 266.084C236.017 265.092 183.002 265.595 178.289 266.084C174.237 266.512 171.16 268.101 171.496 276.208C172.293 295.478 182.465 331.684 187.95 334.623C193.915 337.817 288.799 336.998 295.866 335.578C301.697 334.408 300.632 325.891 296.106 326.316V326.316ZM220.539 300.269C219.501 295.793 216.223 293.097 212.312 293.244C207.92 293.407 207.119 298.595 207.998 302.269C208.888 305.993 211.727 309.296 215.822 309.139C219.982 308.98 221.579 304.745 220.539 300.269ZM226.969 404.62C226.621 403.316 224.612 403.829 224.704 405.109C224.925 408.219 227.039 418.964 228.003 423.984C228.198 424.995 229.936 424.463 230.105 423.536C230.508 421.355 227.763 407.562 226.971 404.62H226.969ZM241.095 404.352C240.443 403.329 238.65 404.043 239.098 405.255C241.106 410.745 243.049 414.872 244.283 421.034C244.534 422.294 246.565 421.978 246.518 420.656C245.895 414.897 244.047 409.338 241.097 404.352H241.095ZM270.388 420.47C268.623 415.382 267.687 410.044 267.617 404.659C267.592 404.395 267.473 404.148 267.283 403.962C267.093 403.777 266.844 403.665 266.579 403.646C266.314 403.628 266.051 403.704 265.837 403.861C265.623 404.018 265.471 404.246 265.41 404.504C264.762 409.522 265.239 414.622 266.805 419.433C268.35 424.392 271.816 428.592 270.997 433.875C270.946 434.165 271 434.464 271.148 434.718C271.297 434.973 271.531 435.166 271.809 435.264C272.087 435.362 272.391 435.358 272.666 435.253C272.941 435.147 273.17 434.948 273.312 434.69C275.904 430.116 271.969 424.688 270.389 420.47H270.388ZM203.486 405.032C203.352 404.799 203.138 404.623 202.885 404.534C202.631 404.446 202.354 404.451 202.104 404.55C201.854 404.649 201.648 404.834 201.524 405.073C201.399 405.311 201.364 405.586 201.426 405.847C202.36 410.238 206.304 418.664 203.66 422.618C203.544 422.818 203.489 423.047 203.501 423.277C203.513 423.508 203.592 423.73 203.728 423.916C203.864 424.103 204.052 424.245 204.268 424.327C204.484 424.408 204.719 424.424 204.945 424.374C210.366 422.617 205.66 408.339 203.488 405.032H203.486ZM227.18 382.191C224.154 370.305 220.66 350.253 230.547 340.789C215.096 340.559 202.219 340.267 199.028 340.264C193.17 340.264 186.012 341.654 184.221 350.015C182.025 360.263 189.763 383.511 197.321 400.445C202.646 400.871 220.852 401.164 227.447 400.338C226.962 394.301 226.873 388.239 227.181 382.191H227.18ZM236.251 340.864C219.735 351.596 231.633 386.902 236.585 400.978C247.29 401.581 258.022 401.543 268.723 400.866C267.507 395.65 267.294 381.482 269.636 378.501C271.979 375.519 279.017 375.805 289.522 375.945C289.599 363.803 289.02 345.532 296.368 339.782C289.825 341.265 260.981 341.19 236.252 340.864H236.251ZM331.2 286.748C315.532 292.836 307.328 290.748 291.462 290.008C280.552 289.499 265.52 292.373 262.541 304.919C262.493 305.194 262.548 305.477 262.695 305.714C262.841 305.951 263.07 306.126 263.337 306.206C263.604 306.287 263.891 306.266 264.144 306.149C264.397 306.032 264.599 305.827 264.71 305.571C269.675 292.627 284.838 292.354 296.495 293.405C308.153 294.456 321.871 295.41 332.276 288.816C332.524 288.66 332.704 288.417 332.781 288.134C332.857 287.851 332.825 287.55 332.689 287.29C332.554 287.03 332.326 286.83 332.05 286.731C331.774 286.631 331.471 286.639 331.201 286.753L331.2 286.748ZM327.084 228.299C314.9 218.311 311.436 196.324 306.6 185.897C296.997 165.155 276.388 158.685 255.072 163.474C238.459 167.207 238.687 184.99 263.154 182.941C276.207 181.848 282.425 178.566 282.471 178.54C283.938 184.263 290.326 193.018 291.079 191.399C292.922 187.432 296.815 189.108 297.449 192.757C298.368 198.052 295.478 200.718 292.476 200.601C291.403 200.56 296.738 219.139 298.068 222.606C298.416 223.514 299.576 223.361 300.412 223.387C307.143 223.589 318.696 224.648 327.084 228.308V228.299ZM323.674 157.068C310.344 146.62 286.859 134.948 269.864 133.955C268.753 133.817 267.625 133.963 266.585 134.379C251.1 138.649 229.106 149.448 216.806 159.68C216.05 160.309 216.643 161.399 217.426 161.636C225.925 164.196 234.061 166.094 241.866 169.36C243.356 169.983 243.985 167.61 242.562 166.998C235.374 164.002 227.928 161.665 220.317 160.015C234.143 150.845 252.736 139.575 268.957 136.206C284.795 137.195 307.477 148.058 320.171 157.649C310.896 159.607 301.759 162.166 292.816 165.31C292.55 165.407 292.331 165.603 292.206 165.858C292.081 166.113 292.06 166.406 292.146 166.676C292.232 166.947 292.42 167.173 292.67 167.308C292.919 167.443 293.211 167.476 293.485 167.401C303.99 164.602 312.522 161.631 323.196 159.52C323.439 159.442 323.655 159.3 323.824 159.11C323.993 158.92 324.108 158.688 324.157 158.438C324.205 158.189 324.186 157.931 324.101 157.691C324.017 157.451 323.869 157.238 323.674 157.075V157.068ZM215.494 200.361C217.471 204.695 218.504 209.4 218.523 214.164C218.389 215.387 216.642 215.333 216.267 214.311C215.675 212.702 215.452 210.653 214.922 208.911C214.728 212.026 214.801 215.132 214.63 218.239C214.632 218.531 214.522 218.812 214.324 219.025C214.125 219.238 213.852 219.367 213.561 219.385C213.27 219.404 212.983 219.31 212.759 219.124C212.535 218.937 212.391 218.672 212.356 218.383C211.988 215.317 211.825 212.23 211.867 209.142C210.982 211.282 210.302 213.501 209.836 215.77C209.768 216.035 209.599 216.264 209.366 216.409C209.133 216.554 208.854 216.604 208.585 216.548C208.316 216.492 208.079 216.334 207.924 216.109C207.768 215.883 207.705 215.605 207.748 215.334C208.11 212.47 209.509 204.938 210.976 202.267C211.675 200.99 214.162 198.208 215.501 200.361H215.494ZM215.771 164.175C215.861 163.933 216.034 163.73 216.259 163.603C216.484 163.476 216.746 163.433 217 163.481C217.254 163.529 217.483 163.665 217.645 163.866C217.808 164.066 217.895 164.318 217.89 164.576C216.26 174.835 215.493 185.213 215.597 195.6C215.597 197.129 213.326 196.937 213.269 195.465C212.932 186.989 213.794 172.348 215.773 164.185L215.771 164.175ZM258.399 152.133C258.181 151.121 256.427 150.905 256.295 152.024C256.097 153.704 255.969 159.196 256.003 160.814C255.997 161.126 256.112 161.427 256.324 161.655C256.536 161.883 256.829 162.02 257.14 162.037C257.451 162.053 257.756 161.949 257.991 161.745C258.226 161.541 258.373 161.253 258.401 160.943C258.6 158.01 258.6 155.066 258.401 152.133H258.399ZM282.821 150.592C276.663 147.202 267.105 146.843 260.639 148.659C260.497 148.694 260.365 148.758 260.249 148.847C260.134 148.935 260.038 149.046 259.967 149.173C259.896 149.3 259.851 149.44 259.836 149.585C259.822 149.729 259.836 149.876 259.88 150.014C259.924 150.153 259.996 150.281 260.091 150.391C260.186 150.501 260.303 150.591 260.434 150.654C260.565 150.717 260.708 150.753 260.853 150.759C260.998 150.765 261.143 150.741 261.279 150.689C268.36 149.345 275.683 150.198 282.265 153.134C281.902 156.015 281.861 158.928 282.145 161.818C282.154 162.13 282.287 162.426 282.514 162.64C282.741 162.855 283.044 162.97 283.356 162.961C283.668 162.952 283.964 162.819 284.178 162.592C284.392 162.365 284.508 162.062 284.499 161.75C284.381 159.295 284.399 157.033 284.456 154.578C284.508 152.337 284.812 151.688 282.826 150.591L282.821 150.592ZM278.205 223.136C282.165 221.402 285.674 218.781 288.459 215.475C289.288 214.534 287.799 213.222 286.875 214.008C282.29 217.897 277.491 222.497 270.963 221.797C264.009 221.052 261.998 213.973 260.547 208.218C260.203 206.845 258.065 207.196 258.357 208.612C259.749 215.369 262.332 222.854 270.083 224.138C272.042 224.455 274.046 224.361 275.967 223.864C276.319 226.154 275.915 228.368 276.096 230.314C276.144 230.574 276.283 230.808 276.489 230.975C276.694 231.141 276.953 231.228 277.217 231.219C277.481 231.211 277.734 231.109 277.929 230.93C278.124 230.752 278.248 230.51 278.28 230.247C278.547 227.883 278.522 225.495 278.205 223.137V223.136ZM281.874 205.877C281.799 205.617 281.634 205.392 281.409 205.242C281.183 205.093 280.912 205.028 280.643 205.06C280.374 205.092 280.126 205.218 279.942 205.417C279.757 205.615 279.65 205.872 279.638 206.143C280.049 210.218 276.081 211.175 272.996 212.011C272.72 212.08 272.484 212.257 272.338 212.501C272.193 212.744 272.15 213.036 272.22 213.312C272.289 213.587 272.466 213.823 272.709 213.969C272.953 214.114 273.245 214.157 273.521 214.087C277.402 213.719 283.028 211.788 281.874 205.884V205.877ZM269.534 205.193C268.706 205.427 267.835 205.456 266.994 205.277C267.346 204.052 267.71 202.832 267.996 201.589C268.07 201.32 268.036 201.034 267.902 200.791C267.768 200.547 267.545 200.365 267.279 200.283C267.013 200.201 266.726 200.226 266.478 200.352C266.23 200.477 266.041 200.695 265.951 200.958C265.53 202.099 265.102 203.391 264.784 204.578C264.636 204.891 264.568 205.236 264.585 205.582C264.601 205.928 264.703 206.265 264.88 206.562C265.057 206.86 265.304 207.11 265.6 207.29C265.896 207.47 266.231 207.575 266.577 207.595C267.838 207.837 269.14 207.765 270.366 207.385C270.515 207.334 270.651 207.254 270.768 207.149C270.885 207.044 270.979 206.917 271.046 206.775C271.113 206.633 271.15 206.48 271.156 206.323C271.163 206.166 271.137 206.01 271.082 205.863C271.027 205.717 270.943 205.582 270.834 205.469C270.726 205.355 270.597 205.264 270.453 205.202C270.309 205.139 270.154 205.106 269.997 205.105C269.841 205.103 269.685 205.133 269.54 205.193H269.534ZM260.205 200.162C260.145 199.227 259.755 198.177 258.674 198.102C257.263 198.006 256.903 199.303 257.087 200.435C257.24 201.372 257.946 202.806 259.131 202.666C260.272 202.534 260.26 201.015 260.205 200.162ZM275.661 195.043C275.591 194.793 275.466 194.562 275.295 194.367C275.124 194.173 274.911 194.019 274.672 193.919C274.433 193.818 274.174 193.772 273.915 193.786C273.657 193.799 273.404 193.87 273.177 193.994C272.82 194.358 272.575 194.817 272.472 195.315C272.368 195.814 272.41 196.332 272.592 196.808C272.774 197.283 273.089 197.697 273.499 197.999C273.909 198.301 274.398 198.479 274.906 198.511C276.316 198.197 276.202 196.438 275.661 195.043ZM286.443 189.501C284.451 188.966 282.354 188.962 280.36 189.487C278.914 186.537 275.882 183.347 272.301 183.931C268.308 184.583 267.305 189.056 267.553 192.475C266.975 192.391 266.386 192.426 265.822 192.58C265.258 192.733 264.732 193.001 264.277 193.367C263.157 190.844 261.397 188.495 258.516 188.027C252.366 187.026 251.23 195.199 252.322 199.642C253.176 203.091 255.825 206.739 259.82 206.244C265.824 205.501 264.657 196.366 264.833 196.138C265.127 195.644 265.579 195.263 266.116 195.056C266.653 194.849 267.244 194.828 267.794 194.997C268.556 199.243 271.926 204.244 276.872 203.072C281.627 201.944 282.283 195.549 281.172 191.649C282.858 191.468 284.559 191.456 286.248 191.615C286.482 191.571 286.696 191.452 286.856 191.275C287.017 191.099 287.115 190.875 287.137 190.637C287.159 190.399 287.102 190.161 286.976 189.959C286.85 189.756 286.661 189.601 286.438 189.515L286.443 189.501ZM276.865 200.456C280.306 198.842 279.183 192.397 277.913 190.038C276.906 188.172 274.424 185.287 272.006 186.439C269.905 187.442 269.325 190.483 269.935 193.458C270.926 198.286 273.014 202.26 276.865 200.456V200.456ZM262.386 195.761C261.939 192.956 260.507 190.421 257.711 190.35C254.151 190.258 253.874 196.325 254.409 198.836C254.886 201.074 256.661 204.102 259.357 203.902C262.632 203.657 262.707 197.77 262.388 195.763L262.386 195.761Z" fill="black"/>
</svg>
